<svg xmlns="http://www.w3.org/2000/svg" viewBox="0 0 2609 2000"><defs><style>.cls-1{isolation:isolate;}.cls-2{fill:#e2fafa;}.cls-3{fill:#9cdedc;}.cls-4{fill:#74bdc1;}.cls-5{fill:#8fd0d6;}.cls-15,.cls-22,.cls-25,.cls-28,.cls-31,.cls-6{fill:#fff;}.cls-25,.cls-6{opacity:0.5;}.cls-7{fill:#9de0de;}.cls-8{fill:#333;}.cls-9{fill:#ffc0bb;}.cls-10{fill:#e03268;}.cls-11{fill:#f3fcff;}.cls-12{fill:#cfe4ff;}.cls-13{fill:#122f5b;}.cls-14{fill:#55769f;}.cls-16{fill:#fc8d84;opacity:0.6;}.cls-17,.cls-18{fill:#f99893;}.cls-18{opacity:0.3;}.cls-18,.cls-26{mix-blend-mode:multiply;}.cls-19{fill:#3660ac;}.cls-20{fill:#daeef7;}.cls-21{fill:#224887;}.cls-22{opacity:0.8;}.cls-23{fill:#e72c3b;}.cls-24{fill:#b20b1f;}.cls-25{mix-blend-mode:screen;}.cls-26{fill:#b6d5e0;}.cls-27{fill:#eaf5f9;}.cls-28{opacity:0.9;}.cls-29{fill:#feb546;}.cls-30{fill:#f4a640;}.cls-31{opacity:0.2;mix-blend-mode:lighten;}.cls-32{fill:#18196b;}.cls-33{fill:#1b4b79;}.cls-34{fill:#c8eef1;}.cls-35{fill:#fbf9eb;}.cls-36{fill:#082948;}</style></defs><g class="cls-1"><g id="Layer_1" data-name="Layer 1"><path class="cls-2" d="M2474.62,1614c-25-192.18,70.36-394.62,4.05-576.73-21.06-57.84-57.16-108.75-86.58-162.81A770.13,770.13,0,0,1,2305.71,611c-8.21-60.24-9.29-121.57-22.95-180.8-37.92-164.32-179.94-299.62-345.9-329.53-133.76-24.1-271.68,15.91-393.28,76.6S1311.7,319,1192.92,385A1609.17,1609.17,0,0,1,790,542.45c-52.1,12.61-105.53,22.86-153.27,47.23-118.55,60.52-178.48,194-221.07,320.1s-81,261.91-179.55,351.4c-26.41,24-56.52,43.91-81,69.86-80.59,85.41-84.21,222.74-37.34,330.41,42.67,98,142.74,230.16,240.79,279.72,3.5,1.77,7.08,3.42,10.71,5H647.05c52.52-9.67,102.76-20.16,145-24.26,165.31-16.05,331.8-1,497.6,8.58,337.38,19.59,675.6,16.84,1013.53,14.09,49.45-.4,102.82-2.09,142-32.32,41.72-32.22,56.21-89.53,54.11-142.2S2481.44,1666.24,2474.62,1614Z"/><path class="cls-3" d="M2253.15,1305.82h0c-16,2-40.25,34.48-43.11,37.75-1.62,1.85-3.29,3.76-5,5.82l10.57,13.09-17.49-4.29c-29.33,39.85-41.51,91.53-32.67,140.32,1.15,6.32,2.54,12.12,3.88,17.73,2.13,8.9,4.14,17.31,3.82,23-.59,10.65-9.88,24.41-19.72,39-14.07,20.82-31.57,46.74-34,79.85-1.8,24.53,5.32,46.31,11,63.82,3.9,12,7.59,23.24,7.13,31.23-.51,8.77-6.43,20.36-12.69,32.63a307.05,307.05,0,0,0-13,27.89,172,172,0,0,0,1.55,127.75l77.79-32.54a88.15,88.15,0,0,1-.78-64.56c2.43-6.22,5.89-13,9.56-20.21,9-17.66,20.22-39.63,21.76-66.07,1.39-23.91-5.27-44.31-11.15-62.31-3.95-12.09-7.68-23.5-7.1-31.46.79-10.7,10-24.36,19.78-38.83,12.64-18.71,28-41.47,32.74-69.84-15.24,6.39-41.23,17.46-44.79,20.24-3.79,3,29.3-24.23,46.25-38.15-.06-15.55-3.41-29.57-6.17-41.1-1.12-4.69-2.18-9.13-2.91-13.14-5-27.54,3-58,20.91-79.54,1.23-1.47,2.64-3.08,4.13-4.79,6.61-7.54,14.83-16.92,20.8-29.85a88.46,88.46,0,0,0,3.86-9.94C2307.31,1330.57,2283.12,1302.05,2253.15,1305.82Z"/><path class="cls-4" d="M2405.47,1435.57h0c-13.42-3-42.48,16-45.74,17.78-2,1.12-4.12,2.27-6.35,3.57a154.24,154.24,0,0,0-37,30.32l13.09,32.17-20.83-22.83a156.17,156.17,0,0,0-30.1,68.45c-.93,5.41-1.51,10.49-2.07,15.4-.88,7.79-1.72,15.14-3.66,19.67-3.59,8.4-15.09,16.76-27.27,25.61-17.41,12.65-39.08,28.39-50.71,54.33-8.62,19.22-9.26,38.83-9.77,54.6-.36,10.76-.69,20.92-3.4,27.22-3,6.91-11.12,14.51-19.75,22.56a261.82,261.82,0,0,0-18.63,18.64,147.3,147.3,0,0,0-36.09,103.28l72.13-3.45a75.47,75.47,0,0,1,18.24-52.19c3.77-4.3,8.55-8.76,13.61-13.47,12.41-11.58,27.86-26,36.83-46.83,8.1-18.83,8.7-37.2,9.23-53.41.36-10.88.69-21.16,3.49-27.39,3.76-8.39,15.18-16.69,27.27-25.47,17.73-12.89,39.8-28.93,51.22-55.65.72-1.67,1.37-3.35,2-5h-31.56l35.38-13.52a212.12,212.12,0,0,0,3.22-21.33c.47-4.11.91-8,1.5-11.43a85.36,85.36,0,0,1,40.09-57.91c1.41-.83,3-1.71,4.72-2.65,7.52-4.13,16.88-9.28,25.47-17.95a76.34,76.34,0,0,0,6-6.87c.64-.84,1.23-1.69,1.78-2.56l-26.52-6.81,31.87-8.45A35.78,35.78,0,0,0,2405.47,1435.57Z"/><path class="cls-5" d="M2440.83,1607.78h0c-9.63-4.38-34.45,5.43-37.19,6.27-1.7.52-3.45,1.06-5.33,1.7a120.81,120.81,0,0,0-73.14,69.7c-1.54,3.93-2.77,7.67-4,11.27-1.88,5.72-3.66,11.13-5.82,14.23-4,5.77-14,10.27-24.51,15-15.07,6.81-33.82,15.29-46.61,33-9.48,13.12-13,27.78-15.85,39.56-1.94,8-3.77,15.64-6.79,20-3.32,4.74-10.63,9.19-18.38,13.9a201.91,201.91,0,0,0-16.92,11.14,113.14,113.14,0,0,0-43.23,72.1l54.81,8.63a57.93,57.93,0,0,1,21.86-36.44c3.5-2.65,7.79-5.26,12.33-8,11.14-6.78,25-15.22,35-29.51,9-12.91,12.35-26.64,15.27-38.75,2-8.14,3.81-15.82,6.88-20.07,4.14-5.73,14-10.2,24.49-14.93,15.35-6.94,34.45-15.57,47.21-33.9a78.44,78.44,0,0,0,7.31-13.23l-19.21-7.39L2373,1717c.33-1,.66-2,1-2.93,1-3,1.93-5.87,2.91-8.37a65.57,65.57,0,0,1,39.18-37.33c1.19-.41,2.54-.82,4-1.26,6.31-1.94,14.15-4.36,22-9.55a56.5,56.5,0,0,0,5.59-4.24C2462.63,1640.35,2458.93,1616,2440.83,1607.78Z"/><path class="cls-6" d="M1340,765.33c-8-12.83-20.18-22.43-32.57-31.1a435.24,435.24,0,0,0-217.4-77c-18.28-1.29-40.85-4.3-47-21.55-5.69-15.84,7.82-32.61,23-39.75s32.72-8.72,47.61-16.56,26.9-26.28,19.09-41.19c-4.7-8.95-14.82-13.43-24.36-16.77-60.14-21.06-123.58-22-187.55-16.53Q856.24,526.41,790,542.45c-52.1,12.61-105.53,22.86-153.27,47.23q-6.36,3.26-12.51,6.79,58.71,12.64,118.42,19.73c16.62,2,36.59,6.07,42.16,21.86,4.76,13.49-4.11,28.8.07,42.48,5.57,18.21,29.11,22.24,48.14,23s42.55,4.66,48.25,22.82c2.53,8.09.42,17-3.78,24.41-10.91,19.11-34,28-55.89,30.13s-44.05-1-66,1c-51.61,4.7-101.83,37.52-151.86,24-22.3-6-41.14-20.69-62.07-30.49-20.14-9.43-41.54-14.13-63.54-16.09a825.31,825.31,0,0,0-36.9,80.49c44.71-1.1,92.23-1.39,130.28,22.07,11.09,6.85,21,15.52,32.26,22.08,14.53,8.47,31.08,13.2,47.81,14.9,65.69,6.65,126.4-31.89,190-49.44,88-24.28,182.2-7.94,269.71,18.16,35,10.44,70,22.5,106.36,25.41s75.35-4.49,102.67-28.73S1359.26,796.35,1340,765.33Z"/><path class="cls-4" d="M1915.24,1883.36s-144.31-123.95-299.71-37c0,0,0-157.26-114.7-173.91s-216.46,74-190.56,172.06c0,0-238.66-46.25-283.06,66.6l888,7.4Z"/><path class="cls-7" d="M2309.63,1940c-89.69-170.79-254.34-93.38-254.34-93.38s-28.26-157.27-238.36-111.81c0,0-88.47,25.8-100.76,133.93,0,0-122.86-44.23-146.21,77.41Z"/><path class="cls-8" d="M773.59,841.05s-18.43,10.42-24,25.16c-4.72,12.58-25.8,10.38-39,27.19C696,912.08,675.2,940,722.93,958.85c29.65,11.71,76.86,20.71,87.56,12.81s36.22-4.73,30.48-87.73c0,0-69.79-29.13-70.49-29.3S773.59,841.05,773.59,841.05Z"/><path class="cls-8" d="M841,876.43a42.93,42.93,0,1,1-42.93-42.93A42.93,42.93,0,0,1,841,876.43Z"/><path class="cls-9" d="M956.11,1006.15l-3.14,1.47c-13.34,3.2-89.42,21.33-92.93,19-3.84-2.54-21-38-21-38l-19.53,31.79s17.64,33.42,29.12,38.71c11.2,5.16,90.07-23.49,112.29-37l2.24-1c2.16.46,7.84,1.26,7.84,1.26,22.67,2.57,20.33,2.71,20.52,1.83s-9-4.84-8.44-5.69,13.87,0,13.23-1.08-12.92-3.58-12.68-4.37,13.09.29,13-1.6-14.15-2.54-13.62-4,15-.41,14.68-2.13c-.25-1.45-16.41-3.08-21.54-3.57a1,1,0,0,1-.64-1.47c5.93-8.76,5.9-9.84,4.84-10.37-.76-.39-8.21,5.25-15.48,10.08Z"/><rect class="cls-10" x="561.38" y="1155.43" width="558.65" height="781.52" rx="36.49"/><rect class="cls-11" x="602.51" y="1192.78" width="476.38" height="666.43"/><path class="cls-12" d="M750.7,1131.21H910.43a49.11,49.11,0,0,1,49.11,49.11v29.63a0,0,0,0,1,0,0H701.6a0,0,0,0,1,0,0v-29.63A49.11,49.11,0,0,1,750.7,1131.21Z"/><rect class="cls-12" x="637.37" y="1269.49" width="250.57" height="18.6"/><rect class="cls-12" x="637.37" y="1337.77" width="250.57" height="18.6"/><rect class="cls-12" x="637.37" y="1406.05" width="250.57" height="18.6"/><rect class="cls-12" x="637.37" y="1474.33" width="250.57" height="18.6"/><rect class="cls-12" x="637.37" y="1542.61" width="250.57" height="18.6"/><rect class="cls-12" x="637.37" y="1610.89" width="250.57" height="18.6"/><rect class="cls-12" x="637.37" y="1679.17" width="250.57" height="18.6"/><rect class="cls-12" x="637.37" y="1747.45" width="250.57" height="18.6"/><rect class="cls-12" x="944.5" y="1269.49" width="142.13" height="136.4"/><rect class="cls-12" x="944.5" y="1449.57" width="142.13" height="136.4"/><rect class="cls-12" x="944.5" y="1629.64" width="142.13" height="136.4"/><polygon class="cls-9" points="925.23 1299.57 924.12 1326.47 900.76 1317.48 903.87 1298.13 925.23 1299.57"/><path class="cls-13" d="M944.63,1359.73l-54.23-18a3.19,3.19,0,0,1-2-4h0a3.2,3.2,0,0,1,4-2l54.23,18.05a3.19,3.19,0,0,1,2,4h0A3.19,3.19,0,0,1,944.63,1359.73Z"/><path class="cls-14" d="M898.28,1317.09l-7.62,16.22c-.94,2-.4,4.27,1.13,4.78l53.14,17.68a4.06,4.06,0,0,0,4.29-1.32c1.3-1.42,2.28-3.87,1-8-2.49-8.22-17.3-15-23.16-23.18a1,1,0,0,0-.48-.36l-24.45-8.13C900.76,1314.3,899.13,1315.29,898.28,1317.09Z"/><path class="cls-15" d="M919.88,1331.54h0a1.18,1.18,0,0,1,.16-1.47c1.81-2,6.94-6.51,13.19-3.15a1,1,0,0,1,.21,1.29v0c-.24.49-.69.71-1,.52-5.61-3-10,1-11.52,2.7C920.56,1331.81,920.13,1331.85,919.88,1331.54Z"/><path class="cls-15" d="M924.68,1335.55h0a1.19,1.19,0,0,1,.15-1.47c1.81-2,6.95-6.51,13.2-3.15a1,1,0,0,1,.21,1.29v0c-.23.49-.69.71-1,.52-5.6-3-10,1-11.52,2.7C925.35,1335.82,924.93,1335.85,924.68,1335.55Z"/><path class="cls-15" d="M929.13,1339.29h0a1.21,1.21,0,0,1,.16-1.48c1.81-2,7-6.51,13.2-3.14a1,1,0,0,1,.21,1.29h0c-.23.49-.69.71-1,.52-5.61-3-10,1-11.52,2.71A.64.64,0,0,1,929.13,1339.29Z"/><path class="cls-13" d="M748,1111.51s-10.9,51.3,38.57,63.49,111.89,13.42,111.89,13.42l1.16,119.5,26,3s77.7-161-13.77-192.75l-83.69-4.87-34.3-4.64s-34.32-10.81-34.83-9.2S748.78,1112.38,748,1111.51Z"/><path class="cls-9" d="M806.26,942.18s-30.5-6.82-46.33-6.29,5.69,42.17,5.69,42.17l25.84.57s15.75-10.5,18.06-10.36c8.71.52,1.92-24.54,1.92-24.54Z"/><path class="cls-9" d="M775.58,909.35,766.5,936.9s7.9,16.33,32.1,9.29c0,0-2.76-5.71.94-17.46C803.33,916.73,775.58,909.35,775.58,909.35Z"/><path class="cls-16" d="M775.58,909.35l-4.26,12.87c2.53,9.4,10.77,15.81,26.3,17.8a37.41,37.41,0,0,1,1.92-11.29C803.33,916.73,775.58,909.35,775.58,909.35Z"/><path class="cls-17" d="M830.93,889.19c-2,4.47-.65,9.37,2.93,10.94s8.07-.78,10-5.26.66-9.37-2.92-10.94S832.9,884.71,830.93,889.19Z"/><path class="cls-9" d="M828.93,915.6a36.78,36.78,0,0,0,3-6.1,70.12,70.12,0,0,0,4.24-17.28c.14-1.16.35-2.3.58-3.44A37.79,37.79,0,1,0,762,880.26a8.14,8.14,0,0,0-7.33-.77c-4.54,1.88-6.31,8-4,13.67s7.94,8.74,12.48,6.86a7.23,7.23,0,0,0,1.72-1c1.39,18.54,16.17,33.22,34.35,33.41a33.89,33.89,0,0,0,23.25-9c.41-.33.85-.71,1.31-1.16A32.92,32.92,0,0,0,828.93,915.6Z"/><path class="cls-17" d="M820.3,882.31a23.32,23.32,0,0,0-1.21,6.37,17.63,17.63,0,0,0,.12,3.32,8.46,8.46,0,0,0,1.14,3.4l.31.4.29.35a4,4,0,0,1,.37.47,2.44,2.44,0,0,1,.41,1,2.92,2.92,0,0,1-.72,2.23,8.92,8.92,0,0,1-5.26,2.64,7.34,7.34,0,0,0,6.42-1.53,4.39,4.39,0,0,0,1.5-3.52,3.49,3.49,0,0,0-.2-1,3.69,3.69,0,0,0-.43-.92,5.08,5.08,0,0,0-.59-.79c-.13-.14-.15-.19-.22-.27l-.17-.23a8,8,0,0,1-.94-2.58,28.51,28.51,0,0,1-.43-3C820.51,886.58,820.43,884.47,820.3,882.31Z"/><polygon class="cls-9" points="881.89 1296.33 869.86 1330.8 852.16 1313.1 858.56 1296.78 881.89 1296.33"/><path class="cls-8" d="M807.51,886.7a3.3,3.3,0,1,1-3.26-3.33A3.31,3.31,0,0,1,807.51,886.7Z"/><path class="cls-8" d="M832,887.3a3.3,3.3,0,1,1-3.26-3.33A3.3,3.3,0,0,1,832,887.3Z"/><path class="cls-18" d="M807,908.62a10.54,10.54,0,0,1,8.71,1.16s4.57-2.86,8.16-.13a8.67,8.67,0,0,1-9.16,6.34A7.76,7.76,0,0,1,807,908.62Z"/><path class="cls-17" d="M803.1,906.18a22.4,22.4,0,0,0,2.66,1.88,22.87,22.87,0,0,0,2.85,1.51,19.49,19.49,0,0,0,6.15,1.65,16.81,16.81,0,0,0,6.3-.7,23,23,0,0,0,5.78-2.89,18.8,18.8,0,0,1-2.61,2,17.83,17.83,0,0,1-3,1.49A15.64,15.64,0,0,1,818,912a15.8,15.8,0,0,1-9.7-1.81A18.72,18.72,0,0,1,803.1,906.18Z"/><path class="cls-8" d="M808.74,876.84a34.3,34.3,0,0,0-4.86-1,16.75,16.75,0,0,0-4.59.07,15.22,15.22,0,0,0-4.36,1.33c-.75.26-1.39.74-2.15,1.09s-1.4.89-2.22,1.28a14.92,14.92,0,0,1,1.38-2.25,11.4,11.4,0,0,1,1.93-1.87,10.75,10.75,0,0,1,5-2.15,11.12,11.12,0,0,1,5.44.52A10.26,10.26,0,0,1,808.74,876.84Z"/><path class="cls-8" d="M823.8,876.84a10.18,10.18,0,0,1,4.71-2.4,11,11,0,0,1,5.47.15,10.59,10.59,0,0,1,4.74,2.75,11.1,11.1,0,0,1,1.68,2.08c.45.77-1.23,0-.94.86-.76-.49.67.48,0,0s-1.3-1-2-1.34a15.33,15.33,0,0,0-4.17-1.85,16.54,16.54,0,0,0-4.54-.63A36.06,36.06,0,0,0,823.8,876.84Z"/><path class="cls-19" d="M824.8,1019.87s-6.72,19.63-7.94,30.06c-3,25.91,2.58,48.14,7.94,62.89,7.52,20.68-56.21,9.19-57.46,8.56s-53.89-21-53.89-21l-4-40.59-6.06-39.93,2.82-23.5Z"/><path class="cls-9" d="M723.85,962.78s8.16.71,7.27,14.89-7.51,41.19-7.51,41.19-64.32,123.61-78.42,135.64a4.47,4.47,0,0,1-2.73,1l-43.34-.17a15.38,15.38,0,0,1,5.77-3.58l20.2-5.36A3,3,0,0,0,627,1145l6.48-11.81,48.78-130.12c5-11.59,16.81-18.21,24.95-27.86C713.1,968.15,719.58,962.08,723.85,962.78Z"/><path class="cls-19" d="M811.44,943.73c-.61,12.33-17.87,32.87-17.87,32.87-3.13-6.87-33.26-40.29-33.64-40.71-12.41.19-38.74,2-54.84,13.46-21.62,15.35-34.57,49.84-34.57,49.84s39.17,19.74,48.88,20.68H828.12a96.76,96.76,0,0,0,32.59-9.4S858.14,959.38,811.44,943.73Z"/><path class="cls-20" d="M736.81,978.63c-1.12,3.35-2.11,6.74-3.11,10.13s-1.92,6.8-2.82,10.21-1.73,6.85-2.48,10.31-1.47,6.93-2,10.44l.83-.84a19.62,19.62,0,0,1-3.59,0c-1.23-.08-2.47-.26-3.71-.44-2.46-.44-4.93-.91-7.36-1.59l-1.82-.48-1.81-.56c-1.2-.38-2.42-.72-3.61-1.15l-3.58-1.24-3.55-1.37c-2.37-.89-4.68-1.94-7-2.9l-6.93-3.16-6.87-3.32c-2.26-1.17-4.53-2.33-6.82-3.46,2.16,1.36,4.33,2.69,6.52,4s4.42,2.55,6.66,3.79,4.53,2.36,6.82,3.5l3.48,1.62c1.16.54,2.32,1.08,3.51,1.55a111.07,111.07,0,0,0,14.52,5.12l1.86.5,1.89.43c1.25.31,2.53.5,3.81.73s2.57.35,3.88.43a21.86,21.86,0,0,0,4,0l.71-.08.12-.75c1-6.93,2.46-13.83,3.93-20.72L734.51,989Z"/><path class="cls-20" d="M819.47,970.7q2.31,6,4.17,12.1a107.82,107.82,0,0,1,3,12.31,59.89,59.89,0,0,1,.83,6.24,47,47,0,0,1,.16,6.28c-.16,4.19-6.36,23.88-8.19,27.78,2.58-3.46,9.33-23.32,9.79-27.65a45.37,45.37,0,0,0-.57-13c-.41-2.14-.88-4.25-1.47-6.33s-1.27-4.13-2.06-6.14A66.16,66.16,0,0,0,819.47,970.7Z"/><path class="cls-21" d="M711.68,1098.92c-10.51,13.8-12.72,32.45-5,48,5.32,10.81,15.39,20.88,33.94,25.45,49.46,12.18,111.89,13.42,111.89,13.42l1.15,119.5,26,3s77.7-161-13.77-192.75l-83.69-4.87L747.9,1106s-34.32-10.81-34.83-9.2A11,11,0,0,1,711.68,1098.92Z"/><path class="cls-20" d="M866.37,1189c-1.32-.24-2.65-.46-4-.77s-2.6-.66-3.89-1c-.64-.2-1.28-.42-1.92-.65a14.49,14.49,0,0,0,1.95-.56,16.6,16.6,0,0,0,3.56-1.82,20.71,20.71,0,0,0,3-2.62,20,20,0,0,0,2.33-3.16l-1.32,1.44c-.47.44-.91.91-1.41,1.32a19.24,19.24,0,0,1-3.06,2.27,17.45,17.45,0,0,1-3.42,1.6,12.88,12.88,0,0,1-3.61.73l-2.16.08,1.91.89a25.36,25.36,0,0,0,3.92,1.37,39,39,0,0,0,4,.86c1.35.21,2.69.41,4.05.51s2.71.16,4.07.16C869,1189.38,867.7,1189.21,866.37,1189Z"/><path class="cls-22" d="M2190.13,399.19A44.92,44.92,0,0,0,2135,365.82a66.15,66.15,0,0,0-79.55-35.14,81.48,81.48,0,0,0-146.37,14.23A55.9,55.9,0,0,0,1826,393.76c0,1.84.1,3.64.27,5.43Z"/><path class="cls-15" d="M1935,609.09a70.55,70.55,0,0,0-56.84-68.31l-59-11.68a39.76,39.76,0,0,1-23.55-14.46l-22.85-29.11a33,33,0,0,0-26-12.63H1591.14a33,33,0,0,0-26,12.63l-22.84,29.11a39.79,39.79,0,0,1-23.56,14.46l-59,11.68a70.55,70.55,0,0,0-56.84,68.31L1396,1151.33a75.86,75.86,0,0,0,27.12,59.12c34,28.51,101.74,68.21,214.44,67.65v33.65a35.61,35.61,0,0,0,35.61,35.61h0a35.61,35.61,0,0,0,35.61-35.61v-33.69c107.65-1.4,172.82-39.82,206-67.61a75.86,75.86,0,0,0,27.12-59.12Zm-266-101.93A28.86,28.86,0,1,1,1640.06,536,28.87,28.87,0,0,1,1668.92,507.16Z"/><path class="cls-20" d="M1458.26,663.26a27,27,0,0,0-23.47,26.32l-5.52,430.06a65.81,65.81,0,0,0,23.81,51.47c30.81,25.59,93,61.53,197.52,58.76q18.32-.48,36.64,0c104.51,2.77,166.71-33.17,197.52-58.76a65.81,65.81,0,0,0,23.81-51.47L1903,685.82a27,27,0,0,0-23.77-26.36C1706.46,638.1,1551.33,650.62,1458.26,663.26Z"/><path class="cls-23" d="M1883.3,829.14l-213.93,31.94L1455,807.28l-.14-.21-3.73,292.5a60.54,60.54,0,0,0,21.65,47.18c28,23.46,84.54,56.4,179.53,53.86q16.65-.45,33.3,0c95,2.54,151.53-30.4,179.53-53.86a60.54,60.54,0,0,0,21.65-47.18l-3.45-270.43Z"/><path class="cls-24" d="M1455,807.28s182.67,53.17,291-7.84,203.54,25.46,78.68,90.27C1696.39,956.27,1455,807.28,1455,807.28Z"/><rect class="cls-15" x="1470.8" y="755" width="161.01" height="161.01" rx="10.7"/><rect class="cls-25" x="1810.35" y="688.93" width="58.13" height="437.46" rx="22.09"/><rect class="cls-26" x="1488.67" y="785.14" width="123.88" height="7.43"/><rect class="cls-26" x="1488.67" y="811.46" width="123.88" height="7.43"/><rect class="cls-26" x="1488.67" y="837.79" width="123.88" height="7.43"/><rect class="cls-26" x="1488.67" y="864.12" width="123.88" height="7.43"/><path class="cls-9" d="M1098.09,1139.27a5.92,5.92,0,0,1-5.34-6.07c.27-24.44.81-160.55-20-156.92-22.85,4-18.86,188.94-17.77,209.25s3.63,119,8.7,141.44,16.26,499,10.52,610h214.33s-56.57-517.15-45-555.59,20.31-65.28,47.87-104.45,23.94-105.17,32.64-124,29-45.33,11.6-53.31S1286,1142.38,1273,1191c0,0-8.35,13.42-14.51-3.26s-17-201.28-17.77-215.06-7.25-25.38-17.05-24.29-14.14,35.17-15.23,91,1.89,101.18-10.12,99-6.56-176.25-16-205.63-27.92-9.07-27.56,26.47,5.8,174.08-5.44,172.63-5.8-192.57-25.39-190.76c-20.23,1.88-20.3,31.55-20.3,82.33C1103.59,1069.75,1114.15,1140.24,1098.09,1139.27Z"/><path class="cls-17" d="M1076.39,1169.21s90.3-28.28,158.3-3.8C1234.69,1165.41,1152.54,1158.88,1076.39,1169.21Z"/><path class="cls-17" d="M1079.29,1220s78.33,68.17,93.92,101.9c0,0,42.07-76.88,76.16-104.44,0,0-51.86,22.48-75.07,64.55C1174.3,1282,1130.42,1235.58,1079.29,1220Z"/><path class="cls-17" d="M1079.29,1332.05s6.52,42.79,70.35,36.62C1149.64,1368.67,1097.73,1359.7,1079.29,1332.05Z"/><path class="cls-20" d="M1219.22,1500.32H1109.44a14.2,14.2,0,0,0-14.2,14.2V1624.3a14.2,14.2,0,0,0,14.2,14.2h40.69v47.78a14.2,14.2,0,0,0,14.2,14.2h0a14.2,14.2,0,0,0,14.2-14.2V1638.5h40.69a14.2,14.2,0,0,0,14.2-14.2V1514.52A14.2,14.2,0,0,0,1219.22,1500.32Z"/><rect class="cls-27" x="1120.02" y="1525.1" width="88.61" height="88.61" rx="7.7"/><rect class="cls-28" x="1340.89" y="1447.98" width="75.42" height="462.63"/><rect class="cls-29" x="1326.48" y="1421.08" width="104.24" height="66.78" rx="7.22"/><rect class="cls-30" x="1336.97" y="1421.08" width="11.98" height="66.54"/><rect class="cls-30" x="1360.73" y="1421.08" width="11.98" height="66.54"/><rect class="cls-30" x="1384.49" y="1421.08" width="11.98" height="66.54"/><rect class="cls-30" x="1408.26" y="1421.08" width="11.98" height="66.54"/><path class="cls-30" d="M1348.95,1487.61h59.31a0,0,0,0,1,0,0V1498a10.84,10.84,0,0,1-10.84,10.84h-37.63a10.84,10.84,0,0,1-10.84-10.84v-10.42A0,0,0,0,1,1348.95,1487.61Z"/><polygon class="cls-23" points="1408.41 1910.61 1348.8 1910.61 1348.8 1664.88 1374.18 1674.25 1408.41 1664.88 1408.41 1910.61"/><path class="cls-24" d="M1348.79,1664.88s25.94,7.75,41.31-1.14,26.81.32,11.17,13.15C1385.17,1690.1,1348.79,1664.88,1348.79,1664.88Z"/><rect class="cls-31" x="1354.84" y="1498.24" width="11.78" height="406.12" rx="3.63"/><rect class="cls-28" x="1471.22" y="1447.98" width="75.42" height="462.63"/><rect class="cls-29" x="1456.81" y="1421.08" width="104.24" height="66.78" rx="7.22"/><rect class="cls-30" x="1467.3" y="1421.08" width="11.98" height="66.54"/><rect class="cls-30" x="1491.06" y="1421.08" width="11.98" height="66.54"/><rect class="cls-30" x="1514.83" y="1421.08" width="11.98" height="66.54"/><rect class="cls-30" x="1538.59" y="1421.08" width="11.98" height="66.54"/><path class="cls-30" d="M1479.28,1487.61h59.31a0,0,0,0,1,0,0V1498a10.84,10.84,0,0,1-10.84,10.84h-37.63a10.84,10.84,0,0,1-10.84-10.84v-10.42A0,0,0,0,1,1479.28,1487.61Z"/><polygon class="cls-23" points="1538.74 1910.61 1479.13 1910.61 1479.13 1664.88 1504.51 1674.25 1538.74 1664.88 1538.74 1910.61"/><path class="cls-24" d="M1479.13,1664.88s25.93,7.75,41.3-1.14,26.81.32,11.17,13.15C1515.5,1690.1,1479.13,1664.88,1479.13,1664.88Z"/><rect class="cls-31" x="1485.17" y="1498.24" width="11.78" height="406.12" rx="3.63"/><rect class="cls-28" x="1601.56" y="1447.98" width="75.42" height="462.63"/><rect class="cls-29" x="1587.14" y="1421.08" width="104.24" height="66.78" rx="7.22"/><rect class="cls-30" x="1597.63" y="1421.08" width="11.98" height="66.54"/><rect class="cls-30" x="1621.39" y="1421.08" width="11.98" height="66.54"/><rect class="cls-30" x="1645.16" y="1421.08" width="11.98" height="66.54"/><rect class="cls-30" x="1668.92" y="1421.08" width="11.98" height="66.54"/><path class="cls-30" d="M1609.61,1487.61h59.31a0,0,0,0,1,0,0V1498a10.84,10.84,0,0,1-10.84,10.84h-37.63a10.84,10.84,0,0,1-10.84-10.84v-10.42A0,0,0,0,1,1609.61,1487.61Z"/><polygon class="cls-23" points="1669.07 1910.61 1609.46 1910.61 1609.46 1664.88 1634.85 1674.25 1669.07 1664.88 1669.07 1910.61"/><path class="cls-24" d="M1609.46,1664.88s25.93,7.75,41.3-1.14,26.81.32,11.17,13.15C1645.83,1690.1,1609.46,1664.88,1609.46,1664.88Z"/><rect class="cls-31" x="1615.5" y="1498.24" width="11.78" height="406.12" rx="3.63"/><path class="cls-32" d="M1782,1605.07a11.89,11.89,0,0,0,11.89-11.89v-30.26A11.89,11.89,0,0,0,1782,1551H1235.82a11.89,11.89,0,0,0-11.89,11.89v30.26a11.89,11.89,0,0,0,11.89,11.89h40v299.29H1232.7a8.77,8.77,0,0,0-8.77,8.77v15.61a8.77,8.77,0,0,0,8.77,8.77h552.47a8.76,8.76,0,0,0,8.76-8.77v-15.61a8.77,8.77,0,0,0-8.76-8.77h-43.12V1605.07Zm-60.89,299.29H1296.72V1605.07h424.43Z"/><path class="cls-15" d="M1845.51,1643.83c-4.76-53.42-33.61-100.2-59.09-141.51-12.46-20.21-25.34-41.11-39.09-61.13-3.85-5.62-7.86-11.31-11.73-16.81-23-32.73-46.88-66.57-52.22-104.58l-24.24,3.42c6.17,43.85,31.73,80.15,56.45,115.26,3.83,5.44,7.79,11.06,11.56,16.56,13.4,19.53,26.13,40.17,38.47,60.17,24,39,51.26,83.12,55.51,130.79,2.84,31.87-5.58,62.24-23.1,83.31-22.69,27.29-62,42.49-120.27,46.48-17.67,1.21-36.49,1.74-54.33-2.5-9.47-2.25-18.68-5.83-28.44-9.63-3.5-1.36-7.11-2.77-10.74-4.11-42.57-15.72-81.64-19.69-116.13-11.82-32,7.31-59.63,24.6-86.36,41.31-7,4.36-14.18,8.87-21.27,13.07-40.7,24.09-74,32.38-101.93,25.33-25.61-6.47-49-27.06-64.27-56.49-13.66-26.38-12.4-47.9-17.26-78.35a14.18,14.18,0,0,1-21.64,4.71c1.1,18.08,4.91,61.23,17.16,84.9,18.45,35.64,47.61,60.78,80,69a105.55,105.55,0,0,0,26,3.18c28,0,59.14-10.32,94.38-31.18,7.34-4.35,14.69-8.94,21.78-13.37,26.16-16.36,50.87-31.82,78.83-38.2,29.78-6.8,64.17-3.13,102.2,10.92,3.42,1.26,6.94,2.63,10.35,4,10.09,3.92,20.53,8,31.65,10.63,21.07,5,43,4.38,61.66,3.1,65.28-4.46,110.23-22.54,137.43-55.25C1838.48,1719,1848.92,1682.09,1845.51,1643.83Z"/><path class="cls-23" d="M1838.8,1644.42c-4.62-51.83-33-97.89-58.11-138.57-12.42-20.14-25.26-41-38.91-60.85-3.83-5.59-7.82-11.26-11.68-16.74-23.51-33.38-47.82-67.91-53.39-107.52l-10.91,1.54c6,42.24,31,77.87,55.29,112.32,3.84,5.46,7.82,11.1,11.61,16.63,13.5,19.67,26.27,40.38,38.65,60.45,24.42,39.6,52.09,84.48,56.48,133.72,3,33.63-6,65.79-24.62,88.21-23.93,28.78-64.81,44.78-125,48.89-18.21,1.25-37.63,1.79-56.35-2.66-9.92-2.36-19.78-6.19-29.32-9.9-3.47-1.36-7.06-2.75-10.64-4.07-41.31-15.26-79.1-19.15-112.29-11.57-30.88,7-58,24-84.29,40.45-7,4.38-14.25,8.91-21.41,13.15-42.31,25-77.31,33.57-107,26.07-27.48-7-52.48-28.79-68.6-59.92-13.6-26.27-11.76-46.85-16-76a14.11,14.11,0,0,1-8,2.47,14.47,14.47,0,0,1-2.81-.28c4.35,30,2.76,51.38,17,78.91,17.56,33.94,45.15,57.82,75.68,65.54a99.29,99.29,0,0,0,24.36,3c26.78,0,56.79-10,91-30.23,7.28-4.31,14.58-8.88,21.64-13.29,25.48-15.94,51.83-32.42,80.9-39,31.07-7.1,66.75-3.34,106,11.16,3.48,1.29,7,2.67,10.46,4,9.88,3.85,20.1,7.83,30.77,10.36,20.14,4.78,40.57,4.24,59.64,2.93,63.34-4.33,106.75-21.61,132.71-52.84C1832.17,1716,1842.06,1680.93,1838.8,1644.42Z"/><polygon class="cls-9" points="1965.33 1895.83 1964.78 1911.78 1989.78 1910.56 1995.67 1891.06 1965.33 1895.83"/><polygon class="cls-9" points="2122.78 1871.74 2140.91 1898.87 2160.49 1883.27 2153.87 1864 2122.78 1871.74"/><path class="cls-15" d="M2131.37,1936.77l46.28-33.54a3.2,3.2,0,0,0,.72-4.46h0a3.21,3.21,0,0,0-4.47-.72l-46.29,33.53a3.2,3.2,0,0,0-.71,4.47h0A3.21,3.21,0,0,0,2131.37,1936.77Z"/><path class="cls-8" d="M2162.73,1882.15l12.15,13.17c1.49,1.62,1.67,4,.36,4.9l-45.35,32.86a4.09,4.09,0,0,1-4.5,0c-1.66-.95-3.33-3-3.38-7.34-.1-8.59,12-19.51,15.11-29.07a.89.89,0,0,1,.35-.48l20.87-15.12C2159.52,1880.23,2161.38,1880.68,2162.73,1882.15Z"/><path class="cls-15" d="M2146.48,1902.43h0a1.2,1.2,0,0,0-.59-1.36c-2.32-1.33-8.58-4.12-13.53,1a1,1,0,0,0,.18,1.3h0c.37.4.87.47,1.14.19,4.45-4.55,9.89-2,11.8-.89C2145.91,1902.89,2146.33,1902.8,2146.48,1902.43Z"/><path class="cls-15" d="M2143.12,1907.7h0a1.2,1.2,0,0,0-.6-1.36c-2.32-1.33-8.58-4.12-13.53,1a1,1,0,0,0,.19,1.3h0c.37.39.87.47,1.15.18,4.45-4.54,9.88-2,11.8-.89A.64.64,0,0,0,2143.12,1907.7Z"/><path class="cls-15" d="M2140,1912.6h0a1.2,1.2,0,0,0-.59-1.36c-2.32-1.33-8.59-4.12-13.54,1a1,1,0,0,0,.19,1.3h0a.81.81,0,0,0,1.15.19c4.45-4.55,9.88-2,11.8-.89C2139.42,1913.06,2139.84,1913,2140,1912.6Z"/><path class="cls-23" d="M1676.71,1320.74s-6-74.28,4.19-158.42-23.76,6.89-23.76,6.89-.73,118.17,8.66,153.07S1676.71,1320.74,1676.71,1320.74Z"/><path class="cls-8" d="M2081.13,1270.74a12.21,12.21,0,0,1,2.6,1.86c2.57,2.54,3.33,6.56,6.09,8.88a23.22,23.22,0,0,0,4.73,2.57c2.2,1.09,4.3,2.7,5.16,5a12.6,12.6,0,0,1,.58,4.1,22.32,22.32,0,0,1-.58,7.48c-.43,1.39-1.14,2.7-1.49,4.12-.7,2.8.05,5.79-.38,8.65a21.32,21.32,0,0,1-2.29,6.11,11.53,11.53,0,0,1-1.81,2.89c-2,2.13-5.28,2.45-8.19,2.17s-5.86-1-8.73-.46c-2.41.46-4.54,1.79-6.79,2.77a24.64,24.64,0,0,1-11,2,6.76,6.76,0,0,1-3.05-.7,7.88,7.88,0,0,1-2.28-2.32c-3.58-4.84-7.19-9.74-9.64-15.24s-3.68-11.75-2.27-17.6a27.72,27.72,0,0,1,6.5-11.7,83.44,83.44,0,0,1,10-9.07C2064.34,1267.36,2074.33,1267,2081.13,1270.74Z"/><path class="cls-9" d="M1981.92,1482.7l6.63-28.5-27.06-20.35s-4.69,34-7,47.63l-54.67,1-10.49,2s72.9,30.52,77.54,21.16c1.31-2.64,5.22-6.46,9-10.93l3.17.78,1.76-7.59a24.09,24.09,0,0,0,2.34-5.14Z"/><path class="cls-33" d="M2004,1352s-34.94,13.79-48.47,86.07c0,0,8.74,11.84,28.26,13.15s13.57-46.42,13.57-46.42Z"/><polygon class="cls-9" points="2045.16 1328.25 2043.83 1349.19 2015.28 1355.13 2010.24 1355.13 2011.29 1330.04 2041.57 1319.35 2045.16 1328.25"/><path class="cls-9" d="M2000.38,1361.79c-1.29,14.07,4.53,16.69,4.53,16.69l43.11-32c-26.76,2.62-44.06,5.49-44.06,5.49S2001.74,1362.17,2000.38,1361.79Z"/><path class="cls-8" d="M2071.91,1282.7s8.8-36.11-12.17-49.64-43.19-12-58.32-3.92-24.2,36.36-17.41,52.51l50.24-15.42Z"/><path class="cls-9" d="M1895.11,1463.83c-5-2.17-8.67-4.41-10.1-6.62l-1.61-4.19c-2-5.23-5-7.52-6.93-6.5l-.32.27s1.27,8.46,2.3,15.39l-4.34-.66-2.3,26.36,20.72-2.78Z"/><path class="cls-13" d="M2053.79,1527.3l-20.73,181.33s-19.65,155.18-35.53,189.68h-35.19l7.66-346.79,62-39Z"/><path class="cls-17" d="M2045.77,1322.78s-.6,6.08-1.13,13.65c-10.86,11.89-31.21,7.81-33.89,6.66.16-3.81,0-11.52,0-11.52Z"/><path class="cls-21" d="M2070.34,1509.76s39.34,50.73,30,131.48-7.25,109.73-7.25,109.73,50.72,46.58,66.25,113.87c0,0-22.25,15.53-37.27,18.12,0,0-74.53-113.88-80.22-127.33s-41.11-225.06-41.11-225.06Z"/><path class="cls-17" d="M1990.54,1288c1.79,4.86.08,10-3.8,11.39s-8.49-1.35-10.28-6.21-.09-10,3.8-11.39S1988.75,1283.17,1990.54,1288Z"/><path class="cls-9" d="M1991,1316.11a39.51,39.51,0,0,1-2.79-6.66,74.31,74.31,0,0,1-3.37-18.55c-.08-1.23-.22-2.46-.4-3.68a40.06,40.06,0,1,1,79.71-4.18,8.64,8.64,0,0,1,7.81-.34c4.68,2.29,6.15,8.88,3.3,14.72s-9,8.74-13.65,6.45a7.31,7.31,0,0,1-1.75-1.19c-2.67,19.53-19.25,34.11-38.5,33.12a35.93,35.93,0,0,1-24-11,16.39,16.39,0,0,1-1.31-1.32A34.56,34.56,0,0,1,1991,1316.11Z"/><path class="cls-8" d="M2027,1288.54a3.76,3.76,0,1,0,4-3.57A3.76,3.76,0,0,0,2027,1288.54Z"/><path class="cls-8" d="M1993.56,1288.54a3.76,3.76,0,1,0,4-3.57A3.77,3.77,0,0,0,1993.56,1288.54Z"/><path class="cls-8" d="M2023.8,1282.27a23.37,23.37,0,0,1,5.3-2,17,17,0,0,1,5.49-.42,14.51,14.51,0,0,1,2.69.51c.45.12.88.28,1.31.43.22.08.43.18.65.27s.43.17.63.27a29,29,0,0,1,4.82,3,15,15,0,0,0-4.32-4,13.15,13.15,0,0,0-2.71-1.27,12.82,12.82,0,0,0-3-.63,13.93,13.93,0,0,0-5.91.76,15.16,15.16,0,0,0-2.67,1.26A11.89,11.89,0,0,0,2023.8,1282.27Z"/><path class="cls-8" d="M2008.64,1282.27a11.53,11.53,0,0,0-2.32-1.78,15.25,15.25,0,0,0-2.68-1.26,13.89,13.89,0,0,0-5.91-.76,13.23,13.23,0,0,0-5.65,1.9,15,15,0,0,0-4.32,4,28.88,28.88,0,0,1,4.81-3c.21-.1.43-.19.64-.27s.42-.19.64-.27c.44-.15.87-.31,1.32-.43a14.51,14.51,0,0,1,2.69-.51,16.92,16.92,0,0,1,5.48.42A23.19,23.19,0,0,1,2008.64,1282.27Z"/><path class="cls-15" d="M2094.62,1408.74a28.69,28.69,0,0,1-2.56-3.1,33.37,33.37,0,0,1-2.17-3.41,30.63,30.63,0,0,1-1.78-3.64,39.14,39.14,0,0,1-1.35-3.86,22.25,22.25,0,0,0,.86,4c.2.67.45,1.31.69,2s.54,1.28.86,1.89a27.46,27.46,0,0,0,2.13,3.58,25.8,25.8,0,0,0,2.09,2.62,16.74,16.74,0,0,1-2.13.26,16.62,16.62,0,0,1-4.44-.41c-.48-.15-1-.26-1.43-.45a16,16,0,0,1-2.74-1.31,12.49,12.49,0,0,0,5.52,2.71,14.15,14.15,0,0,0,3.11.31,13.06,13.06,0,0,0,3.15-.39l.75-.2Z"/><path class="cls-17" d="M2013.05,1286.81a46.48,46.48,0,0,0-2.78,5.33,44,44,0,0,0-2.1,5.66,16.62,16.62,0,0,0-.56,3,4.9,4.9,0,0,0,0,.85,4,4,0,0,0,.09.45,1.9,1.9,0,0,0,.22.49l.18.24.16.13a3.65,3.65,0,0,0,.32.26,5.41,5.41,0,0,0,.66.44,14.31,14.31,0,0,0,2.79,1.28,19.9,19.9,0,0,0,2.92.76,33,33,0,0,1-5.18-2.83c-.19-.14-.36-.3-.54-.44l-.25-.24-.12-.11,0-.07a2.24,2.24,0,0,1-.09-1.13,15.9,15.9,0,0,1,.59-2.8c.52-1.89,1.17-3.76,1.8-5.64S2012.46,1288.72,2013.05,1286.81Z"/><path class="cls-19" d="M2087.8,1468.48h0c5.13-28.53,7.33-59.16,7.33-59.16a172.52,172.52,0,0,0-.16-18.83c-7.15-5.82-17.12-14.07-17.12-14.07l-17-29.05v0c-6.48-.6-13.35-.88-13.35-.88l-42.55,32-1-26.5c-.21.16-.43.32-.63.49a90.88,90.88,0,0,0-32.9,60.59c-1.81,16.84-1.59,34.79-.58,50.83h0s-7.27,92.87-10.76,107.71c0,0,96.45,9.6,147.94,0C2107,1571.6,2087.33,1508.94,2087.8,1468.48Z"/><path class="cls-8" d="M1964.1,1541.88l-73.78,4.45c-4.65.28-9.82-2.71-11.54-6.67L1840,1449.85c-1.71-4,.68-7.41,5.33-7.69l73.78-4.45c4.66-.28,9.83,2.7,11.54,6.67l38.82,89.81C1971.15,1538.16,1968.76,1541.6,1964.1,1541.88Z"/><path class="cls-34" d="M1897.24,1443.54l-25.12,1.51a5.37,5.37,0,0,1-5-2.88l-.7-1.61c-.74-1.71.29-3.2,2.3-3.32l25.12-1.52a5.39,5.39,0,0,1,5,2.89l.69,1.61C1900.28,1441.93,1899.25,1443.42,1897.24,1443.54Z"/><path class="cls-9" d="M1869.78,1518.93l-.31.14a4,4,0,0,1-5.06-1.65l-11.56-20.08a2.91,2.91,0,0,1,.08-3.12c2-2.92,6.17-8.93,7.61-8.71,1.9.29-3.9,10.28-3.11,10.48s9-6.45,9.69-5.37-6.6,8.71-6.27,9.31,8.67-4.24,9.57-3.37-7,7-6.93,7.47Z"/><path class="cls-9" d="M1936.11,1542.11c.08-1.4,11.8-10.23,11.13-10.85s-13.73,7.2-14.68,5.4,13.65-9.9,12.31-11-16.09,7.54-16.69,5.75c-.51-1.5,15.75-11.6,20.94-14.77a1,1,0,0,0-.1-1.74c-10.92-5.14-11.46-6.18-10.62-7.25.6-.76,11.48.63,21.74,1.35l12.45,1.19c3.5-.82,108.07-25.53,113.77-32.39s-9.76-44.69-9.76-44.69l34-14.58s15.54,61.87.57,80.93c-8.07,10.27-137.94,28.6-137.94,28.6-2,1.58-7.64,5.34-7.64,5.34-22.67,14.44-20.12,13.33-20.78,12.59s7-9.32,5.93-9.85S1936,1543.51,1936.11,1542.11Z"/><path class="cls-19" d="M2060.8,1347.36s38,14.41,62.13,70.41c0,0-11.82,26.14-51,27Z"/><path class="cls-35" d="M2122.93,1417.77a44.22,44.22,0,0,1-9.79,11.26,56.87,56.87,0,0,1-12.47,8,72.34,72.34,0,0,1-14,4.68c-2.39.63-4.88.82-7.31,1.25-2.47.25-5,.37-7.41.56l1.29,1c-1.25-5-2.66-9.83-4.17-14.69s-3.12-9.69-5-14.41a137.1,137.1,0,0,0-6.36-13.9c-2.47-4.42-5.19-8.89-9.1-12.19a46.11,46.11,0,0,1,8,12.76,138,138,0,0,1,5.62,14c1.6,4.78,3.24,9.55,4.65,14.4s2.74,9.72,3.92,14.6l.26,1.08,1-.09c2.54-.24,5.09-.39,7.62-.69,2.51-.48,5.06-.72,7.53-1.4a62.61,62.61,0,0,0,7.35-2.18,55.24,55.24,0,0,0,7-3A57.17,57.17,0,0,0,2114,1430,41.26,41.26,0,0,0,2122.93,1417.77Z"/><path class="cls-9" d="M1862.92,1504.27s8.35-2.54,9.09-1.6-9.13,6.26-9.09,6S1862.92,1504.27,1862.92,1504.27Z"/><path class="cls-8" d="M2069.17,1277.72l-.94-.11-.63-7.84-3.51-7.24s-13.72-19.49-14.2-20-10.95-6.76-11.6-7.08-15.29,2.09-15.29,2.09-25.78-5.55-21.42,8.85,23.19,21.9,24.15,21.26c-3.06-3.22-3.38-12.4-3.38-12.4,14.49,16.75,41.74,27.76,41.74,27.76s2.86-2.18,7.82-.34Z"/><path class="cls-15" d="M2004.7,1311.68a10.66,10.66,0,0,0,20.55-.35Z"/><path class="cls-14" d="M750.51,1623.46H733.14v-46a21.06,21.06,0,0,0-21-21H538.71a21,21,0,0,0-21,21v46H500.31v-46a38.44,38.44,0,0,1,38.4-38.4H712.1a38.45,38.45,0,0,1,38.41,38.4Z"/><path class="cls-21" d="M494.94,1605.45H523a9.24,9.24,0,0,1,9.24,9.24v3.9a0,0,0,0,1,0,0H485.71a0,0,0,0,1,0,0v-3.9A9.24,9.24,0,0,1,494.94,1605.45Z"/><path class="cls-21" d="M727.77,1605.45h28.1a9.24,9.24,0,0,1,9.24,9.24v3.9a0,0,0,0,1,0,0H718.54a0,0,0,0,1,0,0v-3.9A9.24,9.24,0,0,1,727.77,1605.45Z"/><rect class="cls-29" x="409.62" y="1618.58" width="422.4" height="318.46" rx="24.95"/><rect class="cls-30" x="479.21" y="1618.58" width="59.55" height="318.46"/><rect class="cls-30" x="712.04" y="1618.58" width="59.55" height="318.46"/><polygon class="cls-15" points="684.97 1762.08 641.14 1762.08 641.14 1718.25 609.67 1718.25 609.67 1762.08 565.85 1762.08 565.85 1793.55 609.67 1793.55 609.67 1837.37 641.14 1837.37 641.14 1793.55 684.97 1793.55 684.97 1762.08"/><path class="cls-8" d="M762,880.26s30.11-10.63,49.59-32.74c0,0,14.44,19.85,24.33,22.69,0,0,.89-31.64-31.66-36S754.74,855.22,762,880.26Z"/><path class="cls-6" d="M2282.76,430.19a418.05,418.05,0,0,0-52-125.36q-50.28-1.63-100.56.53c-18.68.8-37.8,2-55.7-3.44s-34.65-18.91-38.11-37.29c-2.05-10.89.14-23.79-7.68-31.65-4.13-4.15-10.11-5.72-15.79-7.13-25.82-6.39-52.08-12.83-78.65-11.62-55.15,2.52-115.65,36.39-161.16,5.14-19.86-13.64-31.22-38.72-28.38-62.64S1764.5,111.1,1787,102.5c37.87-14.48,85.27,6.18,121.26-6-124.69-14.12-251.74,24.4-364.69,80.77q-19.68,9.81-39,20.31c1.29,17.57,14.66,33.64,30.76,41.86,18.6,9.5,40.15,10.87,61,12l69.95,4c8.05.46,17.06,1.38,22.19,7.59,6.66,8.07,3.09,20,3.64,30.46,1,19,17.1,34.5,35,40.83s37.51,5.38,56.5,4.35l107.64-5.81c11.87-.64,24.52-1.11,34.81,4.84,7.78,4.51,13.17,12.11,18.8,19.13,48.4,60.36,127.74,87.6,204.62,96.33,46,5.22,92.44,4.89,138.81,5.28C2286.76,449,2284.92,439.56,2282.76,430.19Z"/><path class="cls-24" d="M1012.31,810.1,989.1,767.49,965.89,810.1s-51.3,95.34-34.81,136c.16.4.33.81.5,1.21,21.61,50.76,93.43,50.76,115,0,.17-.4.34-.81.5-1.21C1063.61,905.44,1012.31,810.1,1012.31,810.1Z"/><path class="cls-23" d="M989.1,767.49,965.89,810.1s-42.7,79.37-37.66,124.15c29.53,28.78,82.91,21.9,101-20.64.17-.4.34-.8.5-1.21,11.83-29.17-11.23-86.48-25.21-116.54Z"/><path class="cls-15" d="M1076.41,827.66c-3.16,2.69-6.2,5.47-9.18,8.3-5.93,5.68-11.56,11.59-17,17.66S1039.67,866,1034.7,872.4q-5.07,6.54-9.85,13.31l-2.37-1.88c-1.57-1.24-3.19-2.43-4.77-3.64s-3.24-2.36-4.86-3.54c-3.29-2.31-6.61-4.6-10-6.75s-6.92-4.27-10.64-6.15c2,3.65,4.23,7.06,6.51,10.42s4.67,6.59,7.1,9.8c1.23,1.57,2.45,3.17,3.71,4.73s2.51,3.11,3.8,4.64l3.87,4.56,4,4.47,5.29,6,6.08-6.77c5.43-6.06,10.62-12.32,15.62-18.72s9.8-13,14.37-19.69,8.9-13.67,12.94-20.82c2-3.58,4-7.21,5.78-10.93s3.59-7.51,5.08-11.49C1082.8,822.34,1079.57,825,1076.41,827.66Z"/><path class="cls-22" d="M930,716.41a32.14,32.14,0,0,0-39.43-23.88,47.32,47.32,0,0,0-56.94-25.15,58.32,58.32,0,0,0-104.77,10.19,40,40,0,0,0-59.46,35,38.19,38.19,0,0,0,.19,3.88Z"/><path class="cls-22" d="M1432.46,462a26.18,26.18,0,0,0-32.08-19.43,38.52,38.52,0,0,0-46.3-20.46,47.44,47.44,0,0,0-85.21,8.29,32.55,32.55,0,0,0-48.37,28.44c0,1.07.06,2.12.16,3.16Z"/><path class="cls-3" d="M272.54,1915.51c4,3.93,7.44,11.7,11,19.94a187.31,187.31,0,0,0,10.23,20.92H399.93c-2.88-1.8-5.82-3.5-8.85-5a214.53,214.53,0,0,0-20-8.61c-9.07-3.54-17.64-6.88-22-11.27-4-4-7.35-11.69-10.91-19.83-5.2-11.93-11.68-26.77-24.14-38.87-16.84-16.33-38.25-21.79-55.46-26.17-12-3.07-23.4-6-28.72-11.31-2.86-2.88-5.75-8.26-8.8-14-1.93-3.6-3.92-7.31-6.29-11.18a129.74,129.74,0,0,0-90.35-60c-2.1-.32-4.06-.56-6-.8-3-.38-31.12-6.11-40.48.32h0c-17.6,12.09-17,38.51,1.41,49.38a61,61,0,0,0,6.7,3.43c9.22,4,18,5.11,25,6,1.59.2,3.09.39,4.43.59a70.42,70.42,0,0,1,48.39,32.15c1.5,2.46,3,5.3,4.64,8.31l1.57,2.92,26.23.88-18.94,11.4a85.34,85.34,0,0,0,10.21,12.62c16.91,17,38.72,22.55,56.25,27C255.81,1907.36,267.09,1910.23,272.54,1915.51Z"/><path class="cls-5" d="M287.41,1823.62c4.12,6.07,6.39,16.87,8.8,28.31,3.59,17,7.65,36.34,19.74,54.74,13.38,20.36,32.4,32.71,47.69,42.62,3.73,2.43,7.33,4.77,10.66,7.08h98.56A157.57,157.57,0,0,0,429,1900.49a281.66,281.66,0,0,0-23.18-16.23c-10.63-6.9-20.66-13.41-25.1-20.16-4-6.15-6.29-16.84-8.67-28.15-3.49-16.57-7.83-37.19-20.53-55.89-17.15-25.25-43-37.85-63.77-48-14.53-7.08-28.25-13.77-33.62-22-2.89-4.43-5.15-12-7.54-20.11-1.51-5.09-3.07-10.35-5.06-15.9a167.88,167.88,0,0,0-44.62-66.75l-17.75,28,7.81-36.47a165.22,165.22,0,0,0-44.77-25.13c-2.59-1-5-1.79-7.38-2.59-3.78-1.29-38-16-51.67-10.26h0a38.42,38.42,0,0,0-22.09,45.79l35.27,3-26.77,12.15c.75.81,1.53,1.61,2.37,2.37a78.26,78.26,0,0,0,7.64,6.14c10.69,7.56,21.55,11.26,30.28,14.23,2,.67,3.83,1.3,5.48,1.91,24.14,8.92,44.53,29.51,53.21,53.73,1.26,3.53,2.45,7.55,3.72,11.81a227.88,227.88,0,0,0,7.38,22l39.94,7.68-33.37,5.89c.95,1.66,1.95,3.31,3,4.94,17.07,26.12,43.4,39,64.55,49.26C268.24,1808.81,281.86,1815.45,287.41,1823.62Z"/><path class="cls-4" d="M257.54,1596.68c-.76,12.7-1.68,28.15,1.17,44.61,20.52,11.55,60.59,34.12,56,31.69-4.28-2.28-33.83-9.13-51.13-13,10.3,29.11,30.79,50.3,47.65,67.72,13,13.47,25.34,26.19,28.17,37.36,2.11,8.3.3,21.07-1.62,34.58-2.85,20.13-6.09,42.94-.15,68,6.56,27.67,22.52,48.81,35.35,65.79,5.22,6.92,10.16,13.46,13.88,19.58.69,1.12,1.34,2.27,2,3.43h96.4a182.41,182.41,0,0,0-21-50.51,329.54,329.54,0,0,0-19-27.06c-8.91-11.8-17.33-23-19.51-32.13-2-8.36-.19-21,1.7-34.35,2.78-19.57,6.23-43.94-.25-69.53-8.76-34.55-32.11-58.68-50.87-78.07-13.12-13.57-25.52-26.38-28.14-37.53-1.41-6-.85-15.27-.26-25.08.37-6.18.75-12.58.78-19.47.24-53.23-22.3-105.6-60.75-142.25l-17.69,7.81,8.73-15.83c-2.21-1.85-4.33-3.56-6.38-5.21-3.64-2.92-35.4-32.71-52.63-31.85h0c-32.4,1.61-52.65,36.28-37.54,65a92,92,0,0,0,5.93,9.78c8.72,12.56,19.17,21,27.56,27.69,1.9,1.52,3.69,3,5.26,4.29,22.94,19.41,37.11,50.13,37,80.18C258.15,1586.62,257.86,1591.51,257.54,1596.68Z"/><rect class="cls-36" x="217.73" y="1936.96" width="2268.42" height="19.41"/><path class="cls-22" d="M2411.33,908.18a98,98,0,0,0-10.74,2.68A120.68,120.68,0,0,0,2183.83,932a82.77,82.77,0,0,0-123,72.34c0,2.71.14,5.39.4,8h407.35C2452.46,976.24,2431.46,942.42,2411.33,908.18Z"/><path class="cls-4" d="M2201.06,665.75h-45.6v-37h-37v-45.6h37v-37h45.6v37h37v45.6h-37Zm-39.48-6.12h33.36v-37h37V589.25h-37v-37h-33.36v37h-37v33.36h37Z"/><path class="cls-4" d="M2385.91,1277.25h-29.8v-24.19h-24.2v-29.81h24.2v-24.19h29.8v24.19h24.19v29.81h-24.19Zm-25.81-4h21.81v-24.19h24.19v-21.81h-24.19v-24.19H2360.1v24.19h-24.19v21.81h24.19Z"/><path class="cls-4" d="M550.61,977.39H526.93V958.17H507.71V934.5h19.22V915.28h23.68V934.5h19.21v23.67H550.61Zm-20.5-3.18h17.32V955h19.22V937.68H547.43V918.46H530.11v19.22H510.89V955h19.22Z"/><path class="cls-4" d="M487.07,1430.53H471.36v-12.75H458.61v-15.71h12.75v-12.75h15.71v12.75h12.75v15.71H487.07Zm-13.6-2.11H485v-12.75h12.75v-11.49H485v-12.75H473.47v12.75H460.72v11.49h12.75Z"/><path class="cls-4" d="M1609.47,356.24h-23.68V337h-19.22V313.35h19.22V294.13h23.68v19.22h19.21V337h-19.21Zm-20.5-3.18h17.32V333.84h19.22V316.52h-19.22V297.31H1589v19.21h-19.22v17.32H1589Z"/><path class="cls-3" d="M2117.65,1112.55a20,20,0,1,1,20-20A20.07,20.07,0,0,1,2117.65,1112.55Zm0-35a15,15,0,1,0,15,15A15,15,0,0,0,2117.65,1077.54Z"/><path class="cls-3" d="M1908.58,210.21a20,20,0,1,1,20-20A20.06,20.06,0,0,1,1908.58,210.21Zm0-35a15,15,0,1,0,15,15A15,15,0,0,0,1908.58,175.21Z"/><path class="cls-5" d="M1207.75,567.78a19.52,19.52,0,1,1,19.51-19.51A19.54,19.54,0,0,1,1207.75,567.78Zm0-34.08a14.57,14.57,0,1,0,14.56,14.57A14.58,14.58,0,0,0,1207.75,533.7Z"/><path class="cls-4" d="M308.47,1351.75a22.83,22.83,0,1,1,22.82-22.82A22.85,22.85,0,0,1,308.47,1351.75Zm0-39.86a17,17,0,1,0,17,17A17.06,17.06,0,0,0,308.47,1311.89Z"/><path class="cls-15" d="M1934.89,1937l57.15-.17a3.19,3.19,0,0,0,3.19-3.21h0a3.21,3.21,0,0,0-3.21-3.19l-57.15.17a3.2,3.2,0,0,0-3.19,3.21h0A3.21,3.21,0,0,0,1934.89,1937Z"/><path class="cls-8" d="M1992.25,1911l2.16,17.79c.27,2.19-1,4.18-2.56,4.19l-56,.16a4.09,4.09,0,0,1-3.66-2.6c-.79-1.75-1-4.39,1.54-7.94,5-7,21.13-8.84,29.25-14.76a.91.91,0,0,1,.57-.19l25.77-.08C1990.77,1907.53,1992,1909,1992.25,1911Z"/><path class="cls-15" d="M1967.22,1917.93h0a1.2,1.2,0,0,0,.31-1.45c-1.11-2.44-4.56-8.36-11.55-7.12-.4.07-.68.61-.61,1.16v0c.06.53.43.88.82.82,6.26-1.09,9.2,4.13,10.1,6.17A.64.64,0,0,0,1967.22,1917.93Z"/><path class="cls-15" d="M1961.41,1920.23h0a1.2,1.2,0,0,0,.31-1.45c-1.11-2.43-4.56-8.36-11.55-7.12a1,1,0,0,0-.61,1.17h0c.06.54.43.89.82.82,6.26-1.09,9.2,4.13,10.1,6.18C1960.68,1920.27,1961.07,1920.44,1961.41,1920.23Z"/><path class="cls-15" d="M1956,1922.38h0a1.2,1.2,0,0,0,.32-1.45c-1.11-2.43-4.56-8.35-11.55-7.11-.41.07-.68.6-.61,1.16v0c.07.53.44.88.83.81,6.26-1.08,9.2,4.14,10.09,6.18C1955.28,1922.42,1955.67,1922.59,1956,1922.38Z"/><path class="cls-13" d="M875.09,1369.53,832.86,1331a3.19,3.19,0,0,1-.2-4.51h0a3.18,3.18,0,0,1,4.51-.21l42.23,38.52a3.18,3.18,0,0,1,.21,4.51h0A3.2,3.2,0,0,1,875.09,1369.53Z"/><path class="cls-14" d="M850.06,1311.74l-13.55,11.72c-1.67,1.45-2.1,3.75-.91,4.83L877,1366a4.11,4.11,0,0,0,4.47.54c1.75-.77,3.65-2.61,4.18-6.92,1.06-8.53-9.71-20.74-11.75-30.59a1,1,0,0,0-.29-.52l-19-17.36C853.46,1310.19,851.56,1310.43,850.06,1311.74Z"/><path class="cls-15" d="M863.93,1333.72h0a1.2,1.2,0,0,1,.74-1.29c2.45-1.06,9-3.12,13.34,2.49a1,1,0,0,1-.34,1.27h0a.8.8,0,0,1-1.16,0c-3.91-5-9.59-3.12-11.63-2.21A.62.62,0,0,1,863.93,1333.72Z"/><path class="cls-15" d="M866.68,1339.33h0a1.21,1.21,0,0,1,.74-1.29c2.46-1.06,9-3.12,13.34,2.49a1,1,0,0,1-.33,1.27h0a.8.8,0,0,1-1.16,0c-3.9-5-9.59-3.12-11.62-2.21C867.19,1339.85,866.79,1339.71,866.68,1339.33Z"/><path class="cls-15" d="M869.24,1344.55h0a1.2,1.2,0,0,1,.74-1.28c2.45-1.06,9-3.13,13.34,2.48A1,1,0,0,1,883,1347h0a.81.81,0,0,1-1.16.06c-3.91-5-9.59-3.12-11.63-2.21A.63.63,0,0,1,869.24,1344.55Z"/></g></g></svg>