<svg id="Layer_1" data-name="Layer 1" xmlns="http://www.w3.org/2000/svg" xmlns:xlink="http://www.w3.org/1999/xlink" viewBox="0 0 2206.64 1608.35"><defs><style>.cls-1{fill:#f8c6a3;}.cls-2{fill:#fff0f0;}.cls-11,.cls-12,.cls-25,.cls-3,.cls-5{fill:none;stroke-linecap:round;}.cls-3{stroke:#f99898;stroke-linejoin:round;}.cls-4{fill:#ffc7c6;}.cls-5{stroke:#fff;}.cls-11,.cls-12,.cls-25,.cls-5{stroke-miterlimit:10;}.cls-6{fill:#ee9681;}.cls-7{fill:#bce3f6;}.cls-8{fill:#517cc5;}.cls-9{fill:#def1f8;}.cls-10{fill:#ec6469;}.cls-11{stroke:#ec6469;}.cls-12{stroke:#def1f8;stroke-width:2px;}.cls-13{fill:#e73555;}.cls-14{fill:#f0faff;}.cls-15{fill:#e76266;}.cls-16{fill:#ee4652;}.cls-17{fill:#2ca5c6;}.cls-18{fill:#292669;}.cls-19{fill:#1e1242;}.cls-20{fill:#90c8ee;}.cls-21{fill:#f9575c;}.cls-22{fill:#40bedb;}.cls-23{fill:#2f256a;}.cls-24{clip-path:url(#clip-path);}.cls-25{stroke:#ee9681;}.cls-26{fill:#fe6061;}.cls-27{fill:#add9ea;}.cls-28{clip-path:url(#clip-path-2);}</style><clipPath id="clip-path" transform="translate(-201.18 -391.65)"><path class="cls-1" d="M735.55,726.91c3.49,39.61,8.73,122.89-4.66,154.92S687.21,915,687.21,915v47.18s-41.35,23.87-92.6-7l-3.83-126.54s-9.86-88.08,3.83-101.77S661,666.92,735.55,726.91Z"/></clipPath><clipPath id="clip-path-2" transform="translate(-201.18 -391.65)"><path class="cls-1" d="M1673.3,457.88c-9.73,34.33-18.35,91.6-2.25,136.5,13.4,37.35,52.23,36.25,52.23,36.25l.33,44.48s19.7,36.66,75.32-1.07l3.5-149.16s19.46-49.67,6.64-63.22S1746.72,402.09,1673.3,457.88Z"/></clipPath></defs><path class="cls-2" d="M277.2,1992.9c-88.31-88.46-124.85-281.52,31.4-471.3C453.08,1346.11,437.27,1044.05,824.88,987s522.83,365.83,808.26,467.55c127.64,45.49,272.29-14.69,404,141.89,73.44,87.26,66.28,264.86-29.61,396.51Z" transform="translate(-201.18 -391.65)"/><path class="cls-3" d="M1995,1994.74s-39.24-55.07-66-142c-31-100.77-12.41-262.35,44.47-340.81s127.2-111.5,185.12-76.88,21.94,105.06-9.89,144.44S1985.05,1803.65,2039.26,1994" transform="translate(-201.18 -391.65)"/><path class="cls-3" d="M2140.39,1451.09c-34.32,15.07-124.48,104.9-156.54,212.63-46,154.71,34.64,331,34.64,331" transform="translate(-201.18 -391.65)"/><line class="cls-3" x1="1966.39" y1="1106.15" x2="1890.26" y2="1098.29"/><line class="cls-3" x1="1929.89" y1="1150.13" x2="1850.56" y2="1144.55"/><line class="cls-3" x1="1905.71" y1="1193.21" x2="1823.82" y2="1184.77"/><line class="cls-3" x1="1797.81" y1="1231.23" x2="1886.07" y2="1232.94"/><line class="cls-3" x1="1781.49" y1="1276.15" x2="1864.31" y2="1276.15"/><line class="cls-3" x1="1771.78" y1="1331.27" x2="1846.29" y2="1331.27"/><line class="cls-3" x1="1768.23" y1="1375.89" x2="1827.09" y2="1372.04"/><line class="cls-3" x1="1771.78" y1="1431.97" x2="1817.31" y2="1423.59"/><line class="cls-3" x1="1778.94" y1="1477.73" x2="1817.31" y2="1466.28"/><line class="cls-3" x1="1775.36" y1="1457.83" x2="1735.24" y2="1442.42"/><line class="cls-3" x1="1769.16" y1="1401.03" x2="1727.42" y2="1384.6"/><line class="cls-3" x1="1769.16" y1="1348.78" x2="1730.61" y2="1330.62"/><line class="cls-3" x1="1776.96" y1="1295.97" x2="1738.55" y2="1269.03"/><line class="cls-3" x1="1869.93" y1="1119.34" x2="1846.29" y2="1076.31"/><line class="cls-3" x1="1835.34" y1="1164.22" x2="1804.43" y2="1112.45"/><line class="cls-3" x1="1810.75" y1="1204.74" x2="1771.78" y2="1159.89"/><line class="cls-3" x1="1789.86" y1="1250.68" x2="1749.89" y2="1211.26"/><line class="cls-3" x1="1913.69" y1="1076.31" x2="1902.16" y2="1049.4"/><path class="cls-4" d="M2111,1996.55c61.5,0,178.84-7.57,227.88-100.81s63-261.33,68.3-294.63-22.77-40.63-94.57-44.84-194.91,34.17-264.71,134.94S1983,1964.69,2111,1996.55Z" transform="translate(-201.18 -391.65)"/><path class="cls-5" d="M2379.18,1584.24c-112,27.62-244.19,184.51-285.58,406.84" transform="translate(-201.18 -391.65)"/><line class="cls-5" x1="2186.26" y1="1255.4" x2="2082.2" y2="1244.31"/><line class="cls-5" x1="2034.98" y1="1196.51" x2="2049.01" y2="1275.16"/><line class="cls-5" x1="1944.31" y1="1245.9" x2="1984.23" y2="1358.94"/><line class="cls-5" x1="2153.41" y1="1326.19" x2="2013.85" y2="1316.42"/><line class="cls-5" x1="1881.56" y1="1330.62" x2="1937.64" y2="1442.63"/><line class="cls-5" x1="2125.34" y1="1421" x2="1960.5" y2="1405.39"/><line class="cls-5" x1="2082.2" y1="1512.79" x2="1916.78" y2="1503.8"/><line class="cls-5" x1="1836.01" y1="1405.76" x2="1909.06" y2="1529.16"/><path class="cls-6" d="M1695.8,669.89c-41.33,13.51-56.94,175.48-83.87,206.06s-106.69,86.24-106.69,86.24l18.51,61.37s122.35-66.45,138.33-81.47,56.54-118.82,56.54-118.82Z" transform="translate(-201.18 -391.65)"/><path class="cls-6" d="M1439.57,987c-.08.41-.45,1.21-2.15,2-12.16,5.35-25.05,3-38.31,1.55s-24.32-2.16-36.6-3.28c-17.7-1.61-16.12,23.33-8,34.57,11.47,15.94,31.64,24.14,50.13,28.68,37.91,9.32,85.4-4,119.16-26.87l-18.51-61.37c-7.66,6.63-17.54,10.15-19.62,9.94-5.22-.5-11-3.91-16-5.67" transform="translate(-201.18 -391.65)"/><path class="cls-4" d="M528.21,1988.48c-38.13,0-112.84,14.39-176.77-49s-73-221.58-50.62-267c15.67-31.71,196.24,2.27,256.62,78.07S617.08,1952.56,528.21,1988.48Z" transform="translate(-201.18 -391.65)"/><path class="cls-5" d="M332.79,1681.66c68.37,31.13,196.73,150.95,213.8,280.59" transform="translate(-201.18 -391.65)"/><line class="cls-5" x1="122.73" y1="1348.78" x2="210.2" y2="1344.68"/><line class="cls-5" x1="243.38" y1="1316.42" x2="243.38" y2="1377.25"/><line class="cls-5" x1="131.61" y1="1420.43" x2="267.98" y2="1405.76"/><line class="cls-5" x1="305.8" y1="1358.94" x2="300.58" y2="1450.3"/><line class="cls-5" x1="157.36" y1="1496.46" x2="316.54" y2="1480.66"/><path class="cls-7" d="M1254.94,1960.67h0a9.44,9.44,0,0,0,9.44-9.43V548.8a9.44,9.44,0,0,0-9.44-9.44h0a9.44,9.44,0,0,0-9.44,9.44V1951.24A9.44,9.44,0,0,0,1254.94,1960.67Z" transform="translate(-201.18 -391.65)"/><path class="cls-7" d="M1405.66,619.66H1109.57a9.44,9.44,0,0,1-9.44-9.44h0a9.44,9.44,0,0,1,9.44-9.44h297" transform="translate(-201.18 -391.65)"/><path class="cls-7" d="M1082,1953.71a9.45,9.45,0,0,0,9.45-9.45v-11.38l165.93-44.12a9.45,9.45,0,0,0-4.86-18.27l-173,46a9.45,9.45,0,0,0-7,9.13v18.64A9.45,9.45,0,0,0,1082,1953.71Z" transform="translate(-201.18 -391.65)"/><path class="cls-7" d="M1427.89,1953.71a9.46,9.46,0,0,0,9.46-9.45v-18.64a9.46,9.46,0,0,0-7-9.13l-173-46a9.45,9.45,0,0,0-4.86,18.27l165.93,44.12v11.38A9.45,9.45,0,0,0,1427.89,1953.71Z" transform="translate(-201.18 -391.65)"/><circle class="cls-8" cx="1053.76" cy="1576.32" r="26.56"/><path class="cls-8" d="M1055.43,1968a26.56,26.56,0,1,0,26.56-26.56A26.56,26.56,0,0,0,1055.43,1968Z" transform="translate(-201.18 -391.65)"/><path class="cls-8" d="M1455.33,1968a26.56,26.56,0,1,1-26.56-26.56A26.56,26.56,0,0,1,1455.33,1968Z" transform="translate(-201.18 -391.65)"/><path class="cls-9" d="M1347.27,865.81l-1.84,9.84a4.61,4.61,0,0,1-5.17,3.72c-3.59-.5-7,1.59-7.52,5.19l-4.93,35a6.18,6.18,0,0,0,5,7l19.56,3.59a6.2,6.2,0,0,0,7.17-4.78l7.52-34.36a6.21,6.21,0,0,0-4.9-7.42l-1.75-.33a4.6,4.6,0,0,1-3.67-5.37l1.18-6.35a5.85,5.85,0,0,1,7.38-4.62q5,1.27,10.5,2.27a5.94,5.94,0,0,1,5,6l-1.85,53.42c-.53,5.66,3.29,9.06,8.45,9.06,5.72,0,8.89-3.61,9.06-8.45l1.78-51.46a5.91,5.91,0,0,1,6-5.72q2.93.1,6,.1a194.45,194.45,0,0,0,30.37-2.27c1.87-.29,4.37-.78,6.7-1.25,3.7-.76,7.07,1,7.54,4l.85,5.46a5,5,0,0,1-3.91,5.63c-3.83.77-6.54,4.13-5.77,7.95l7.52,37.25a6.67,6.67,0,0,0,7.59,5.27l21.11-3.36a6.67,6.67,0,0,0,5.57-7.41l-4.68-37.55a6.66,6.66,0,0,0-7.62-5.77l-1.9.29a5,5,0,0,1-5.65-4.14l-1.22-7.81a6,6,0,0,1,3.81-6.44c30.56-12,42.84-31.58,42.12-41.64-1.08-15.1-7.55-113.22-11.86-149.87s-11.86-46.37-23.72-50.9-23.72-7.33-32.35-18.36-15.09-20.84-34.5-20.84-25.88,9.81-34.51,20.84-20.48,13.82-32.34,18.36-19.41,14.24-23.72,50.9-10.79,134.77-11.86,149.87c-.67,9.35,9.94,26.94,36,39A6,6,0,0,1,1347.27,865.81Zm51.17-255a11.8,11.8,0,1,1,11.8,11.79A11.8,11.8,0,0,1,1398.44,610.77Z" transform="translate(-201.18 -391.65)"/><path class="cls-7" d="M1331.86,701c2.68-44.19,4.77-67.88,26.37-67.18s71,1.36,86.38,0,33.81-.19,37.3,11.65,7.35,53.33,8,71-49.18,23.44-91.48,24S1331.86,701,1331.86,701Z" transform="translate(-201.18 -391.65)"/><path class="cls-10" d="M1489.92,716.45c2.82,34.55,5.63,75.48,7,95l.69,9.66c-.66,7.91-23.18,35.87-87.34,35.87s-86.69-28-87.35-35.55l.69-10c1.55-22.53,5.06-73.59,8.28-110.45,0,0,7.93-5.22,28.69,0s41.91,15.52,91.21,11.16C1482.19,709.46,1489.92,716.45,1489.92,716.45Z" transform="translate(-201.18 -391.65)"/><line class="cls-11" x1="1187.96" y1="497.06" x2="1189.34" y2="458.31"/><path class="cls-12" d="M1146,1559.65c101.88-3.05,176.53-65.62,217.42-156,46.67-103.2,56.46-221.84,60.18-333.64,2.24-67.57,1.16-135.2-.9-202.76" transform="translate(-201.18 -391.65)"/><path class="cls-11" d="M1421.94,847.91c3.32,122.7,5.6,255.39-9,369.21-12.87,100.32-40.11,214.71-118.35,285.42-41,37.09-93.78,55.48-148.69,57.11" transform="translate(-201.18 -391.65)"/><path class="cls-13" d="M1322.89,821.42l.69-10c.21-3.07.46-6.72.74-10.75-2.26,32.15,47.2,41.25,95,28.69,45.51-11.94,36.92-48.31,31.86-117.19l.53,0c30.43-2.69,38.16,4.3,38.16,4.3,2.82,34.55,5.63,75.48,7,95l.69,9.66c-.66,7.91-23.18,35.87-87.34,35.87S1323.55,829,1322.89,821.42Z" transform="translate(-201.18 -391.65)"/><path class="cls-14" d="M1356.31,798.23c34.42,3.95,70.36,3.64,107.51,0a3.07,3.07,0,0,0,2.76-3V768.61a3.06,3.06,0,0,0-2.91-3.05q-53.58-2.64-107.16,0a3.05,3.05,0,0,0-2.9,3.05v26.58A3.05,3.05,0,0,0,1356.31,798.23Z" transform="translate(-201.18 -391.65)"/><path class="cls-9" d="M1358.78,645.56c33.3-1.55,56.38-1.78,56.82,4.88s-44.84,8.44-59,23.53-14.21,9.77-14.21,0S1345,646.2,1358.78,645.56Z" transform="translate(-201.18 -391.65)"/><path class="cls-6" d="M1469.59,966.46,1427.3,951.6c-2.2-.77-4.63-1.54-6.79-.66-10.12,4.13-1.42,16.73,3.42,21.14,4.26,3.88,11.28,9,14.89,13.51.26.32.84.95.75,1.36" transform="translate(-201.18 -391.65)"/><path class="cls-15" d="M1083.65,1194.19c13.76,1.11,28.61-3.44,38.19-15,5.63-6.76,8.37-15.53,11.9-23.51,1.15-2.61,2.38-5.31,4.55-7.17a9.69,9.69,0,0,1,7.79-2.17,5.63,5.63,0,0,1,4.14,2.54c.85,1.53.58,3.42.3,5.15-2.65,15.84-4.26,36.09-16.31,47.69-11,10.54-23.08,15.62-37.85,19.4" transform="translate(-201.18 -391.65)"/><path class="cls-13" d="M1141,1143.59a53.2,53.2,0,1,1-53.2-53.21A53.2,53.2,0,0,1,1141,1143.59Z" transform="translate(-201.18 -391.65)"/><path class="cls-10" d="M1087.78,1090.38a53.17,53.17,0,0,0-51.53,40.19,45,45,0,1,0,80-31.85A52.92,52.92,0,0,0,1087.78,1090.38Z" transform="translate(-201.18 -391.65)"/><path class="cls-16" d="M826,1208.38c-36.92,0-61.13,26.4-39,50.22,19.15,20.62,98.68,23.42,153.17,23.42s129,.73,176.78-11.78,47.07-53,13.2-56.7S826,1208.38,826,1208.38Z" transform="translate(-201.18 -391.65)"/><path class="cls-6" d="M1089.87,1226.47c-8.69,1.31-18.91,2.35-31,3.12-41.32,2.62-67.64,1.59-133.23,1.81-57.07.19-87.82-2.48-95.79-7-15.43-8.81-55.61-61-65.21-75.08-14-20.54-46.77-175.66-46.77-175.66l22.92-20.13c29.22,11.75,37.65,21,47.16,42,21.11,46.55,63.38,150.53,67.5,155.09,2.24,2.49,6.3,9.41,16.86,10.83,16.57,2.25,121,12.67,133.43,12.45,17.29-.32,12-2.52,20.44-11.23,3-3.11,6.35-6.13,9.88-6.15,8.32,24.43,26.62,34.61,42.31,37.5" transform="translate(-201.18 -391.65)"/><path class="cls-17" d="M723.7,947.57c20.36,2.4,48.62,11.82,61.4,30.66s55.35,124.48,55.35,124.48-23.05,20.86-72.84,24.89Z" transform="translate(-201.18 -391.65)"/><polygon class="cls-14" points="685.01 774.69 671.76 803.73 688.3 805.14 700.8 776.38 685.01 774.69"/><path class="cls-6" d="M1089.87,1226.47c10.76-2,25.23-7.6,34.84-23.89s15.29-39,9.81-47.84c-6.76-10.89-9.43-1.36-12.84,5.43s-13.92,39.45-54.35,30.57Z" transform="translate(-201.18 -391.65)"/><path class="cls-12" d="M923.69,1184.63c4.2,125.92-99.56,234.35-227.75,224.76" transform="translate(-201.18 -391.65)"/><path class="cls-11" d="M695.94,1409.39c76.18,3.83,143.46-28.68,188.16-92,17.17-24.28,26.66-45.35,33.12-71.94,5.8-23.87,6.82-52.6,6.47-60.86L867,1178.72" transform="translate(-201.18 -391.65)"/><path class="cls-18" d="M651.8,1808.44v-.62a20.48,20.48,0,0,1,20.49-20.48h0a20.5,20.5,0,0,0,20.49-20.49v-.62a20.49,20.49,0,0,1,20.49-20.49H950.78a20.5,20.5,0,0,1,20.49,20.49v.62a20.49,20.49,0,0,0,20.49,20.49h0a20.48,20.48,0,0,1,20.48,20.48v.62a20.48,20.48,0,0,1-20.48,20.49h0a20.49,20.49,0,0,0-20.49,20.49v.61a20.49,20.49,0,0,0,20.49,20.49h0a20.49,20.49,0,0,1,20.48,20.49v.62a20.49,20.49,0,0,1-20.48,20.49h0a20.49,20.49,0,0,0-20.49,20.49v.61a20.49,20.49,0,0,1-20.49,20.49H713.27a20.49,20.49,0,0,1-20.49-20.49v-.61a20.49,20.49,0,0,0-20.49-20.49h0a20.49,20.49,0,0,1-20.49-20.49V1891a20.49,20.49,0,0,1,20.49-20.49h0A20.49,20.49,0,0,0,692.78,1850v-.61a20.49,20.49,0,0,0-20.49-20.49h0A20.49,20.49,0,0,1,651.8,1808.44Z" transform="translate(-201.18 -391.65)"/><path class="cls-19" d="M991.76,1870.52H672.29A20.49,20.49,0,0,0,692.78,1850v-.61a20.49,20.49,0,0,0-20.49-20.49H991.76a20.49,20.49,0,0,0-20.49,20.49v.61A20.49,20.49,0,0,0,991.76,1870.52Z" transform="translate(-201.18 -391.65)"/><path class="cls-19" d="M672.29,1787.34a20.5,20.5,0,0,0,20.49-20.49v-.62a20.47,20.47,0,0,1,20.35-20.47H950.92a20.47,20.47,0,0,1,20.35,20.47v.62a20.49,20.49,0,0,0,20.49,20.49H672.29Z" transform="translate(-201.18 -391.65)"/><path class="cls-19" d="M971.27,1932.61v.61a20.49,20.49,0,0,1-20.49,20.49H713.27a20.49,20.49,0,0,1-20.49-20.49v-.61a20.49,20.49,0,0,0-20.49-20.49H991.76A20.49,20.49,0,0,0,971.27,1932.61Z" transform="translate(-201.18 -391.65)"/><path class="cls-7" d="M670.89,1949.8H993.15a48.37,48.37,0,0,1,45.81,32.86h0a9,9,0,0,1-8.51,11.87H633.6a9,9,0,0,1-8.52-11.87h0A48.37,48.37,0,0,1,670.89,1949.8Z" transform="translate(-201.18 -391.65)"/><path class="cls-9" d="M666,1978.25H921.75A14.22,14.22,0,0,0,936,1964h0a14.22,14.22,0,0,0-14.22-14.23H666A14.23,14.23,0,0,0,651.8,1964h0A14.22,14.22,0,0,0,666,1978.25Z" transform="translate(-201.18 -391.65)"/><path class="cls-7" d="M948.91,1757.74c20.23-5.14,115.26-54.06,138.65-80l-8.92-100.73h-288l-277.76,96.86Z" transform="translate(-201.18 -391.65)"/><path class="cls-9" d="M509.65,1654c0,40.22-4.28,82.52,7.57,93.4s101,27.46,193.6,27.46,234.07-2.34,245.38-22.89,5.42-154.41,5.42-154.41Z" transform="translate(-201.18 -391.65)"/><path class="cls-20" d="M509.14,1685.14c.22-10.13.51-20.7.51-31.14l91.05-10.71,189.94-66.23h267.78l21.5,100.73s-77.36-22.61-108.34-31.61-53,8.16-179.91,31.61C674.91,1699.37,559.74,1692.09,509.14,1685.14Z" transform="translate(-201.18 -391.65)"/><path class="cls-21" d="M292,1011.54c24.26-29.12,233-102.82,310.85-83.43s160.55,448.37,160.55,448.37-182.07,205.85-301.81,213C461.65,1583.23,292,1011.54,292,1011.54Z" transform="translate(-201.18 -391.65)"/><path class="cls-16" d="M303.76,1003.68h0a87.37,87.37,0,0,1,106.4,55A2618.34,2618.34,0,0,1,523.41,1491c7,40.6-15.85,80.47-54.2,95.51l-7.58,3a23.15,23.15,0,0,1-30.84-15.65l-143-541.93A23.16,23.16,0,0,1,303.76,1003.68Z" transform="translate(-201.18 -391.65)"/><path class="cls-16" d="M930.44,1630.53c23.61-7.66,37.17-15,64.37-40.37s149-153,165.19-169.14,3.66-88.77-78.5-91-290.09.34-358.11,33.38S498.44,1559.71,485,1588,930.44,1630.53,930.44,1630.53Z" transform="translate(-201.18 -391.65)"/><path class="cls-21" d="M485,1588c3.39-7.13,15.93-22.88,33.86-43,73.77-30.13,145.64-33.75,220.82-39.19,84.66-6.12,178.5-10.2,199.92,27.3,16.19,28.34,23.76,59.42,22.88,83-10.18,6.41-19.77,10.38-32.06,14.37C930.44,1630.53,471.59,1616.23,485,1588Z" transform="translate(-201.18 -391.65)"/><path class="cls-16" d="M466,1655.31c-8.05-24.78,5.5-63.66,34.67-82.78s86.25-35,202.39-44.33,179.43-10.4,205.8,7.41,31.67,59.74,34.33,72-5.31,21.5-21.9,26.81-104.8,29.75-206.34,37.87-176.07,6.63-212.82,0C479,1668.15,468.13,1662,466,1655.31Z" transform="translate(-201.18 -391.65)"/><path class="cls-21" d="M1238.73,1773.65c37.46,15.78,127.67-29.47,169.61-48.33,41.42-18.62,114.2-56.11,126-73s22.29-71.75-17.7-108.73S1336.25,1421,1227.5,1418.25,972.08,1515,959.44,1543.64s-14.2,48-10.05,69.5Z" transform="translate(-201.18 -391.65)"/><path class="cls-16" d="M949.39,1613.14c-1.35-7.65-.69-35.82,13.25-55.46s48.45-42.2,126.76-3,144.69,84.59,167.92,108,21.23,64.56,13.93,87.13-17.92,27.87-32.52,23.89-253-125.59-266.8-135.39C957,1627.65,950.8,1621.1,949.39,1613.14Z" transform="translate(-201.18 -391.65)"/><path class="cls-6" d="M1479.81,1541.11l-35.19-30.82L1388.7,1556l32.55,26.12s21.77-3.34,39.81-17.92S1479.81,1541.11,1479.81,1541.11Z" transform="translate(-201.18 -391.65)"/><path class="cls-15" d="M1444.62,1510.29l4.42,3.88s-13.17,39.82-46.84,52.68L1388.7,1556Z" transform="translate(-201.18 -391.65)"/><path class="cls-19" d="M1413.4,1567.31c2-5.14,14.53,5.48,24.63,4.39s18.77-3,23-12.06c5-10.73.41-18-5.69-25-7.52-8.56-7-22.39,2.29-29a10.44,10.44,0,0,1,4.56-1.93c9.6-1.29,12.62,7.45,32.62,8,22.37.58,41.14-7.67,62.15-12.82,25.23-6.19,37.65-20.93,51.8-21.48,12.88-.51,20,3.75,28.59,30.2-3.61,17.78-20.24,34.67-41,47-18.85,11.26-46.3,22.8-62.46,30.58s-41,40.93-76.57,45.9C1429.34,1603.34,1413.4,1567.31,1413.4,1567.31Z" transform="translate(-201.18 -391.65)"/><path class="cls-19" d="M872.18,1264.17s249.71-12.56,273.57-12.56,37.67,4.59,55.25,20.5,243.62,238.18,243.62,238.18-12.56,33.91-57.77,55.26L1100.54,1348.3l-289.14,7.49Z" transform="translate(-201.18 -391.65)"/><path class="cls-1" d="M1402.2,1557.69l32.43,25.35c.43,40.54-18.47,59.54-47.75,55L1349.07,1607Z" transform="translate(-201.18 -391.65)"/><path class="cls-6" d="M1402.2,1557.69l3.55,2.78s-9.19,38.15-38.6,61.38L1349.07,1607Z" transform="translate(-201.18 -391.65)"/><path class="cls-18" d="M604.31,1396.51c11.42,46.45,35.07,92.53,112,96.6s220.6-29.82,272.1-36.59,71.82,2.71,98.93,17.61,261.56,147.72,261.56,147.72,30.25-16.73,53.29-64.16c0,0-230.83-215-264.71-231.28s-50.14-17.61-107.06-24.39-158.25-13.55-158.25-13.55Z" transform="translate(-201.18 -391.65)"/><path class="cls-18" d="M1377.47,1630.72c1-5.45,15.32,2.51,25-.56s17.8-6.68,20.13-16.35c2.76-11.5-3.15-17.75-10.5-23.35-9.06-6.91-11.3-20.56-3.47-28.84a10.39,10.39,0,0,1,4.09-2.79c9.16-3.16,13.85,4.82,33.55,1.38,22-3.85,38.82-15.64,58.4-24.84,23.51-11,32.78-27.94,46.54-31.28,12.53-3,20.36-.27,34,24,0,18.15-13,38-30.88,54.2-16.26,14.76-40.89,31.49-55.2,42.3s-32.13,48.22-66,60.11C1400.2,1662.9,1377.47,1630.72,1377.47,1630.72Z" transform="translate(-201.18 -391.65)"/><path class="cls-22" d="M687.21,939.09c16,3.42,61.84,10.86,81.6,31.93,9.9,10.56,103.37,330.92,103.37,330.92s-41.83,94.57-267.87,94.57l-50.57-167.74L535.36,968.55,594,934.65S671.16,935.67,687.21,939.09Z" transform="translate(-201.18 -391.65)"/><path class="cls-17" d="M872.18,1301.93s-5-17-12.72-43.31c-72.19,30.81-237.69,40-268.88-77.88,0,0-31.44,31.09-38.62,22.88l1.78,25.15,50.57,167.74C830.35,1396.51,872.18,1301.93,872.18,1301.93Z" transform="translate(-201.18 -391.65)"/><path class="cls-23" d="M575.9,840.3l1.64,19.22a13.17,13.17,0,0,0,14.53,12h0L591,834.86Z" transform="translate(-201.18 -391.65)"/><path class="cls-1" d="M735.55,726.91c3.49,39.61,8.73,122.89-4.66,154.92S687.21,915,687.21,915v47.18s-41.35,23.87-92.6-7l-3.83-126.54s-9.86-88.08,3.83-101.77S661,666.92,735.55,726.91Z" transform="translate(-201.18 -391.65)"/><g class="cls-24"><path class="cls-25" d="M690,918.52c-28.81,3.55-77.69-6.65-85.7-60.43" transform="translate(-201.18 -391.65)"/></g><circle class="cls-1" cx="379.42" cy="424.94" r="23.71"/><path class="cls-23" d="M588.16,796.33l1.18,15.42h14.5V780.87a.49.49,0,0,1,.23-.42c1.6-1,11.25-7.6,11.78-20.44.57-14-3.15-36.31,7.43-37.45s40.88,25.15,72.33,22S740.78,724.84,746.5,714s4.86-24,0-24-17.72,3.72-24.59,5.44c0,0,7.15-11.44,8.58-20s-4.86-6.86-18-2.86-63.75,10.58-88.34,15.16S587,698,578.11,708.55s-6.39,55.31-4.09,85.26C580.6,792.18,584.86,794,588.16,796.33Z" transform="translate(-201.18 -391.65)"/><circle class="cls-23" cx="459.17" cy="409.04" r="6.88"/><circle class="cls-23" cx="515.64" cy="406.26" r="6.88"/><path class="cls-23" d="M637.22,782.94c11.44-5.12,23.79-6.85,35.84-6.59,0,0-6.65-6.67-19.59-4.56S637.22,782.94,637.22,782.94Z" transform="translate(-201.18 -391.65)"/><path class="cls-23" d="M603.84,788.14c.47,28.45,11.51,67.39,29.82,71.75s44.18-5.95,60-6.67c16-.73,43.73,4,44.54-8,0,0,2.63,30.16-6.31,49.32s-26.82,25.55-49.81,28.1-79.61-1.25-90.47-67.26l-.53-17.54-1.72-26.1Z" transform="translate(-201.18 -391.65)"/><path class="cls-6" d="M690.65,881c-12.53-.29-24.42-4-35.19-9.44,0,0,1.88,12.24,14.77,14.68C684.12,888.88,690.65,881,690.65,881Z" transform="translate(-201.18 -391.65)"/><path class="cls-23" d="M704.44,772.89c12.31-2.36,24.72-1.2,36.39,1.82,0,0-4.94-8-18-8.93S704.44,772.89,704.44,772.89Z" transform="translate(-201.18 -391.65)"/><path class="cls-25" d="M694,776.35s9.62,67.33,9.26,70.55S690,853.22,690,853.22" transform="translate(-201.18 -391.65)"/><path class="cls-7" d="M592.16,1636.9c-31.41,0-69.81-.79-116.24-20.43-9.61-4.06-15.75-13.44-12.81-23.46s13.6-16.23,23.46-12.81c49.11,17,94.63,19.56,124,14,21.86-4.17,34.12-14.67,39.91-35.06,10.53-37.13,13.61-74.54,10-121.3a18.91,18.91,0,0,1,37.7-2.93c4,51.42.5,92.92-11.31,134.54-10.29,36.25-26.43,58.44-68.07,65.32A202.32,202.32,0,0,1,592.16,1636.9Z" transform="translate(-201.18 -391.65)"/><path class="cls-20" d="M660.48,1437.8c.71,9.14,1.16,17.82,1.36,26.32,11.49.32,24,.61,37.75.83-.19-9.7-.6-19.64-1.41-30.08,0-.32-.13-.61-.17-.92l-37.34-.4A18.75,18.75,0,0,0,660.48,1437.8Z" transform="translate(-201.18 -391.65)"/><path class="cls-9" d="M568.38,1415.1c1.92,12.63,8.35,23.53,25.58,27.49,18.78,4.33,58.56,6.66,115.56,6.26,56-.38,88.36-4.41,106.77-7.36s20.6-25.15,20.6-25.15Z" transform="translate(-201.18 -391.65)"/><path class="cls-26" d="M576.94,1350.92c-36.93,0-61.13,26.4-39,50.21,19.14,20.63,98.67,23.42,153.16,23.42s129,.74,176.78-11.78,47.07-53,13.2-56.7S576.94,1350.92,576.94,1350.92Z" transform="translate(-201.18 -391.65)"/><path class="cls-16" d="M568.27,1351.48c-24,8-32.76,21,19,31,45.48,8.77,269.27,14.27,316.78-10.94Z" transform="translate(-201.18 -391.65)"/><path class="cls-1" d="M809.23,1312.11c-4.06-.36-22-1.86-27-2.42-13.48-1.5-134.11-20.23-147.6-22.48s-18.73-4.49-19.48-8.24-25.41-168.33-25.41-168.33l-110.45,36.2s28.72,165.1,34,183.83,14.23,30,24.28,33,60.57,14.73,135.5,14.91c51.35.12,83-3.75,116,.89,11.69,1.64,18.05,8.31,36.41,12.69,14.42,3.45,31.69-.14,46.17-1.64,18-1.87,34.78-3.13,52.22,2.57,10.57,3.46,21.23,6.53,31.11-.67,2.57-1.88,4.91-4.58,5-7.77.19-6.2-6.2-15.34-9.63-20.17-4.58-6.44-10.15-12.14-15.79-17.65-10.66-10.43-21.7-17.79-36.1-21.82C888.22,1322.12,822.72,1313.33,809.23,1312.11Z" transform="translate(-201.18 -391.65)"/><path class="cls-6" d="M589.76,1110.64l7.45,52.4s-34.58,36.52-109,33.58l-8.95-49.78Z" transform="translate(-201.18 -391.65)"/><path class="cls-17" d="M535.36,968.55c-23.86,12-56.55,34-63.29,78.91s7.24,134.6,7.24,134.6,32.21,3,65.93-3.75,54-23.55,54-23.55-6.21-47.21-11.91-87.64C579.26,1009.72,566.58,976,535.36,968.55Z" transform="translate(-201.18 -391.65)"/><path class="cls-7" d="M1338.75,600.78h21.82a9.44,9.44,0,0,1,9.44,9.44h0a9.44,9.44,0,0,1-9.44,9.44h-21.82" transform="translate(-201.18 -391.65)"/><path class="cls-6" d="M1911.69,1799.25l28.87,72.36s-2.1,31.89-25.48,35.41-46.45-44.29-46.45-44.29l-19.58-39.18Z" transform="translate(-201.18 -391.65)"/><path class="cls-15" d="M1849.05,1823.55l12.1,24.21s14.13.59,35.45-8.86S1920,1820,1920,1820l-8.29-20.77Z" transform="translate(-201.18 -391.65)"/><path class="cls-27" d="M1940.75,1863.94c-5.09-1.36-4.06,14.21-10.63,21.3s-13,12.61-22.23,10.69c-11-2.29-14-9.91-15.84-18.51-2.27-10.6-13.12-18.07-23.42-14.69a9.85,9.85,0,0,0-4.05,2.39c-6.44,6.61-1.48,13.88-12.43,29.44-12.25,17.41-26.59,31.12-45.06,40.19-15.81,7.77-29.19,2.23-45.23,14.53-8.87,6.81-9.5,24.54-6.55,37.37,15.63,7.34,58.48,7.92,74.24,4.43,20.4-4.52,41.44-17,56.56-24.93s59.31-12.62,83.28-37C1964,1892,1940.75,1863.94,1940.75,1863.94Z" transform="translate(-201.18 -391.65)"/><path class="cls-17" d="M1902.66,1050.77s-68.06,396.6-65.32,417.19S1920,1804.84,1920,1804.84c-16.33,17.88-49.79,33.72-70.93,29.22,0,0-139.64-281.69-145.79-340.19-8.46-80.44,0-449.25,0-449.25Z" transform="translate(-201.18 -391.65)"/><path class="cls-1" d="M1741.4,1844.55l-8,76.15s-12.82,29.28-36,24.65-28.64-57.43-28.64-57.43l2.19-43.37Z" transform="translate(-201.18 -391.65)"/><path class="cls-6" d="M1741.4,1844.55l-2.72,27.53s-33.48,13.35-69-3.56l1.21-24Z" transform="translate(-201.18 -391.65)"/><path class="cls-22" d="M1662.08,1048.88s-12.81,362.65-13.29,414.72,17.34,389.21,17.34,389.21,29.1,16,77.6-1.46c-1.33-9.17,49-339.31,54.18-373.93s95.85-421.66,95.85-421.66Z" transform="translate(-201.18 -391.65)"/><path class="cls-7" d="M1736.17,1913.55c-4.33-3-8.65,12-17.23,16.42s-16.48,7.46-24.55,2.5c-9.58-5.89-9.79-14.07-8.6-22.78,1.46-10.75-6.2-21.45-17-21.77a9.88,9.88,0,0,0-4.63.87c-8.3,4-6.1,12.55-21.69,23.47-17.43,12.21-36.14,17.19-56,22.49-24.71,6.59-44.18,4.59-56.34,10.4-10.09,4.82-18.16,16.5-11.06,42,12.21,12.21,42.5,13.65,65.44,12.57,20.88-1,48.71-6.26,65.61-8.58s54,10.9,84.86-3.84C1742.46,1950.51,1736.17,1913.55,1736.17,1913.55Z" transform="translate(-201.18 -391.65)"/><path class="cls-22" d="M1884.8,716.47A42.87,42.87,0,0,0,1859,675.12c-23.41-10-54.25-18.27-71.64-21.69-26.09-5.12-71.42,1.34-95.91,11s-28.47,20.66-45.3,50.9c-14.83,26.65-24.52,44.29-26.92,72-3.32,38.27,25.68,72.27,25.68,72.27S1653,898,1653.6,916c.29,8.18-22.2,68.2-25,84.3-3.26,18.68-62.11,208.87-59.73,342.23,39.6,36.61,149.5,49.08,232.3,42.39L1816.67,1250l22.52,125.5c43-8.2,78.45-21.39,94.84-37.91,0,0,4.32-254-65.64-406.8-15.37-33.55,3.06-114.49,10.77-144.58a119.88,119.88,0,0,0,3.66-24.41Z" transform="translate(-201.18 -391.65)"/><path class="cls-22" d="M1879.16,786.23c1-3.78,1.73-7.61,2.33-11.45-.61,1.34-79.34,174.72-114.66,197.4s-133.69,12.76-133.69,12.76l-9.05,33.33s81.17,34.21,158.87,29.36c50.79-3.17,94.33,68.95,98.56,192.47,3.61,105.63-23,128.59-30.75,133,37.74-8.27,68.37-20.5,83.26-35.51,0,0,4.32-254-65.64-406.8C1853,897.26,1871.45,816.32,1879.16,786.23Z" transform="translate(-201.18 -391.65)"/><path class="cls-22" d="M1798.83,1097.51l89-4.26s12.38,109.28,1.45,116.8c-17.43,12-62.09,12.43-81,6.48C1794.73,1212.28,1798.83,1097.51,1798.83,1097.51Z" transform="translate(-201.18 -391.65)"/><path class="cls-22" d="M1889.25,1210c2.59-1.78,3.86-9.32,4.31-19.73h0c-5.69,18.1-35.19,18.4-62.71,17.51-20.77-.67-27-36.75-32.52-60.39-1.56,25.67,2.53,66.78,9.9,69.1C1827.16,1222.48,1871.82,1222,1889.25,1210Z" transform="translate(-201.18 -391.65)"/><path class="cls-22" d="M1799.06,668.38s17,2.37,17.59,11.48c.88,12.72-26.37,53.27-101,110.72-6-2.31-31.86-109.91-2.72-120.79Z" transform="translate(-201.18 -391.65)"/><path class="cls-9" d="M1884.8,716.47A42.87,42.87,0,0,0,1859,675.12c-23.41-10-54.25-18.27-71.64-21.69-26.09-5.12-71.42,1.34-95.91,11s-28.47,20.66-45.3,50.9c-14.83,26.65-24.52,44.29-26.92,72-3.32,38.27,25.68,72.27,25.68,72.27S1653,898,1653.6,916c.29,8.18-22.2,68.2-25,84.3-3.26,18.68-62.11,208.87-59.73,342.23,39.6,36.61,149.5,49.08,232.3,42.39L1816.67,1250l22.52,125.5c43-8.2,78.45-21.39,94.84-37.91,0,0,4.32-254-65.64-406.8-15.37-33.55,3.06-114.49,10.77-144.58a119.88,119.88,0,0,0,3.66-24.41Z" transform="translate(-201.18 -391.65)"/><path class="cls-7" d="M1879.16,786.23c1-3.78,1.73-7.61,2.33-11.45-.61,1.34-79.34,174.72-114.66,197.4s-133.69,12.76-133.69,12.76l-9.05,33.33s81.17,34.21,158.87,29.36c50.79-3.17,94.33,68.95,98.56,192.47,3.61,105.63-23,128.59-30.75,133,37.74-8.27,68.37-20.5,83.26-35.51,0,0,4.32-254-65.64-406.8C1853,897.26,1871.45,816.32,1879.16,786.23Z" transform="translate(-201.18 -391.65)"/><path class="cls-9" d="M1798.83,1097.51l89-4.26s12.38,109.28,1.45,116.8c-17.43,12-62.09,12.43-81,6.48C1794.73,1212.28,1798.83,1097.51,1798.83,1097.51Z" transform="translate(-201.18 -391.65)"/><path class="cls-7" d="M1889.25,1210c2.59-1.78,3.86-9.32,4.31-19.73h0c-5.69,18.1-35.19,18.4-62.71,17.51-20.77-.67-27-36.75-32.52-60.39-1.56,25.67,2.53,66.78,9.9,69.1C1827.16,1222.48,1871.82,1222,1889.25,1210Z" transform="translate(-201.18 -391.65)"/><path class="cls-22" d="M1799.06,668.38s17,2.37,17.59,11.48c.88,12.72-26.37,53.27-101,110.72-6-2.31-31.86-109.91-2.72-120.79Z" transform="translate(-201.18 -391.65)"/><path class="cls-1" d="M1780.27,814.47s-45.5,113.19-47.31,116.34-9.06,3.61-21.91,1.58S1608,909.86,1583.42,901.23c-12.18-4.29-28.53-9.94-34.39-23.92s-11.12-23.3-17.44-37.61c-7-15.76-6.15-33.82-12.3-33.54-7.57.34-20.07,11.54-17.81,31.83,1,8.91,1.7,15.91,2.18,21a8.76,8.76,0,0,1-9.22,9.57,215.87,215.87,0,0,1-23.82-2.46c-25.41-4.07-71.17-13.35-71.17-13.35s-18,2.2-2.87,16.28c13.44,12.52,34.65,14.11,43.21,26.74s26.83,25.47,68.54,42.38,78.18,31.49,145.86,53.87,94.12,21.8,104.09,22.11,24-12.45,34.4-27.78S1855,864.24,1855,864.24Z" transform="translate(-201.18 -391.65)"/><path class="cls-9" d="M1856.88,675.38c28.52,5.55,46.08,34,43.4,74.16s-45.41,157.14-45.41,157.14-28.42-3.51-56.28-15.71-42.22-30.58-42.22-30.58,31.2-81.63,43.78-115.5C1818,696.82,1828.48,676,1856.88,675.38Z" transform="translate(-201.18 -391.65)"/><path class="cls-23" d="M1800.53,605.7c11.36-1.88,22.42-11.89,33.2-40s32.14-99.13,7-130.58c-27.34-34.25-55.28-39.29-97.47-27V605.7Z" transform="translate(-201.18 -391.65)"/><path class="cls-1" d="M1673.3,457.88c-9.73,34.33-18.35,91.6-2.25,136.5,13.4,37.35,52.23,36.25,52.23,36.25l.33,44.48s19.7,36.66,75.32-1.07l3.5-149.16s19.46-49.67,6.64-63.22S1746.72,402.09,1673.3,457.88Z" transform="translate(-201.18 -391.65)"/><g class="cls-28"><path class="cls-25" d="M1711.36,634.27c30.26,1.78,65.64-10.18,80.35-61" transform="translate(-201.18 -391.65)"/></g><path class="cls-1" d="M1833.72,542.85a22.85,22.85,0,1,0-23.48,22.21A22.86,22.86,0,0,0,1833.72,542.85Z" transform="translate(-201.18 -391.65)"/><path class="cls-25" d="M1704.3,509.66s-9.17,49-8.91,52.1,12.66,4,12.66,4" transform="translate(-201.18 -391.65)"/><path class="cls-23" d="M1744.75,526.18a6.63,6.63,0,1,0-6.82,6.45A6.63,6.63,0,0,0,1744.75,526.18Z" transform="translate(-201.18 -391.65)"/><path class="cls-23" d="M1683.8,523.32a6.63,6.63,0,1,0-6.82,6.44A6.64,6.64,0,0,0,1683.8,523.32Z" transform="translate(-201.18 -391.65)"/><path class="cls-23" d="M1757,513c-8.69-4.18-18.11-7.34-27.38-7.4a17.12,17.12,0,0,1,15.71-4.82C1755.24,502.7,1757,513,1757,513Z" transform="translate(-201.18 -391.65)"/><path class="cls-23" d="M1690.74,503.28c-9.48.44-19.1,2.1-27.14,6.38a16.82,16.82,0,0,1,11.34-11.5C1684.4,495.17,1690.74,503.28,1690.74,503.28Z" transform="translate(-201.18 -391.65)"/><path class="cls-15" d="M1701.72,587.62c12,1.15,23.84-1.08,34.75-5,0,0-1,12.92-15.54,14.64C1704.14,599.23,1701.72,587.62,1701.72,587.62Z" transform="translate(-201.18 -391.65)"/><path class="cls-23" d="M1807.28,519.37,1803,546c-11.18-1.43-15.5-5-15-16.21l1.58-13.26s-17.58-4.46-29.91-17c-21.49-21.85-7-72.57-7-72.57s13.83-8.31,45.29,15S1817,507.91,1807.28,519.37Z" transform="translate(-201.18 -391.65)"/><path class="cls-23" d="M1749.83,440.51s-15.72,57-83.64,53c0,0-3.68,23.51-3.79,30.29,0,0-16.14-5.75-25.68-33.24-10-28.69,1.66-61.88,24.74-80.32,41.55-33.19,93.87-15.53,105.37,3.67l-8.78,20.58Z" transform="translate(-201.18 -391.65)"/><path class="cls-1" d="M1726.83,729.45c-12-7.77-17.78-35.89-13.89-59.66l15-6.38,71.17,5s6.52,1.78,7.2,7.33C1807.09,682.57,1769.28,720.54,1726.83,729.45Z" transform="translate(-201.18 -391.65)"/></svg>