<svg xmlns="http://www.w3.org/2000/svg" xmlns:xlink="http://www.w3.org/1999/xlink" viewBox="0 0 1609.35 1607.54"><defs><style>.cls-1{isolation:isolate;}.cls-2{opacity:0.3;fill:url(#linear-gradient);}.cls-3{fill:url(#linear-gradient-2);}.cls-4,.cls-48,.cls-6{fill:#fff;}.cls-4{mix-blend-mode:soft-light;}.cls-5{fill:url(#linear-gradient-3);}.cls-7{fill:url(#linear-gradient-4);}.cls-8{fill:url(#linear-gradient-5);}.cls-9{fill:url(#linear-gradient-6);}.cls-10{fill:url(#linear-gradient-7);}.cls-11{fill:url(#linear-gradient-8);}.cls-12{fill:url(#linear-gradient-9);}.cls-13{fill:url(#linear-gradient-10);}.cls-14{fill:url(#linear-gradient-11);}.cls-15{fill:url(#linear-gradient-12);}.cls-16{fill:url(#linear-gradient-13);}.cls-17{fill:url(#linear-gradient-14);}.cls-18{fill:url(#linear-gradient-15);}.cls-19{fill:url(#linear-gradient-16);}.cls-20{fill:url(#linear-gradient-17);}.cls-21{fill:url(#linear-gradient-18);}.cls-22{fill:url(#linear-gradient-19);}.cls-23{fill:url(#linear-gradient-20);}.cls-24{fill:url(#linear-gradient-21);}.cls-25{fill:url(#linear-gradient-22);}.cls-26{fill:url(#linear-gradient-23);}.cls-27{fill:url(#linear-gradient-24);}.cls-28{fill:url(#linear-gradient-25);}.cls-29{fill:url(#linear-gradient-26);}.cls-30{fill:url(#linear-gradient-27);}.cls-31{fill:url(#linear-gradient-28);}.cls-32{fill:url(#linear-gradient-29);}.cls-33{fill:url(#linear-gradient-30);}.cls-34{fill:url(#linear-gradient-31);}.cls-35{fill:url(#linear-gradient-32);}.cls-36{fill:url(#linear-gradient-33);}.cls-37{fill:url(#linear-gradient-34);}.cls-38{fill:url(#linear-gradient-35);}.cls-39{fill:url(#linear-gradient-36);}.cls-40{fill:url(#linear-gradient-37);}.cls-41{fill:url(#linear-gradient-38);}.cls-42{fill:url(#linear-gradient-39);}.cls-43{fill:url(#linear-gradient-40);}.cls-44{fill:url(#linear-gradient-41);}.cls-45{fill:url(#linear-gradient-42);}.cls-46{fill:url(#linear-gradient-43);}.cls-47{fill:url(#linear-gradient-44);}.cls-48{opacity:0.44;}.cls-49{fill:url(#linear-gradient-45);}.cls-50{fill:url(#linear-gradient-46);}.cls-51{fill:url(#linear-gradient-47);}.cls-52{fill:url(#linear-gradient-48);}.cls-53{fill:url(#linear-gradient-49);}.cls-54{fill:url(#linear-gradient-50);}.cls-55{fill:url(#linear-gradient-51);}.cls-56{fill:url(#linear-gradient-52);}.cls-57{fill:url(#linear-gradient-53);}.cls-58{fill:url(#linear-gradient-54);}.cls-59{fill:url(#linear-gradient-55);}.cls-60{fill:url(#linear-gradient-56);}</style><linearGradient id="linear-gradient" x1="2312.08" y1="2474.21" x2="881.84" y2="697.94" gradientUnits="userSpaceOnUse"><stop offset="0" stop-color="#b37cff"/><stop offset="1" stop-color="#f895e7"/></linearGradient><linearGradient id="linear-gradient-2" x1="1524.12" y1="1255.19" x2="2005.6" y2="831.71" xlink:href="#linear-gradient"/><linearGradient id="linear-gradient-3" x1="-4191.13" y1="-2568.76" x2="-3509.73" y2="-2568.76" gradientTransform="matrix(-0.28, -0.96, -0.96, 0.28, -1702.54, -2199.93)" xlink:href="#linear-gradient"/><linearGradient id="linear-gradient-4" x1="2923.65" y1="-1863.09" x2="2046.71" y2="-267.35" gradientTransform="translate(197.02 -154.7) rotate(-4.43)" gradientUnits="userSpaceOnUse"><stop offset="0" stop-color="#fdf53f"/><stop offset="1" stop-color="#d93c65"/></linearGradient><linearGradient id="linear-gradient-5" x1="1757.24" y1="-371.8" x2="1590.59" y2="39.01" gradientTransform="translate(342.25 -395.46) rotate(-0.98)" xlink:href="#linear-gradient-4"/><linearGradient id="linear-gradient-6" x1="1792.56" y1="-357.46" x2="1625.91" y2="53.35" gradientTransform="translate(342.25 -395.46) rotate(-0.98)" xlink:href="#linear-gradient-4"/><linearGradient id="linear-gradient-7" x1="1934.52" y1="-299.88" x2="1767.87" y2="110.93" gradientTransform="translate(342.25 -395.46) rotate(-0.98)" xlink:href="#linear-gradient-4"/><linearGradient id="linear-gradient-8" x1="1508.42" y1="161.96" x2="1371.84" y2="589.69" gradientTransform="translate(342.25 -395.46) rotate(-0.98)" xlink:href="#linear-gradient-4"/><linearGradient id="linear-gradient-9" x1="1839.7" y1="267.75" x2="1703.11" y2="695.48" gradientTransform="translate(342.25 -395.46) rotate(-0.98)" xlink:href="#linear-gradient-4"/><linearGradient id="linear-gradient-10" x1="1579.38" y1="1603.55" x2="1925.2" y2="1603.55" gradientUnits="userSpaceOnUse"><stop offset="0" stop-color="#18459f"/><stop offset="1" stop-color="#2874b5"/></linearGradient><linearGradient id="linear-gradient-11" x1="-6120.9" y1="1403.74" x2="-6061.87" y2="1403.74" gradientTransform="matrix(-1, 0, 0, 1, -4084.67, 0)" xlink:href="#linear-gradient-10"/><linearGradient id="linear-gradient-12" x1="-6009.87" y1="1846.27" x2="-5541.9" y2="1846.27" gradientTransform="matrix(-1, 0, 0, 1, -4584.5, -392.46)" gradientUnits="userSpaceOnUse"><stop offset="0" stop-color="#2b3582"/><stop offset="1" stop-color="#150e42"/></linearGradient><linearGradient id="linear-gradient-13" x1="1675.87" y1="1537.86" x2="1789.96" y2="967.4" gradientTransform="matrix(1, 0, 0, 1, 0, 0)" xlink:href="#linear-gradient-12"/><linearGradient id="linear-gradient-14" x1="-6062.08" y1="1980.66" x2="-5485.82" y2="1980.66" gradientTransform="matrix(-1, 0, 0, 1, -4084.67, 0)" xlink:href="#linear-gradient-10"/><linearGradient id="linear-gradient-15" x1="-5884.18" y1="1860.77" x2="-5686.93" y2="1860.77" gradientTransform="matrix(-1, 0, 0, 1, -4084.67, 0)" xlink:href="#linear-gradient-10"/><linearGradient id="linear-gradient-16" x1="-5956.59" y1="1512.37" x2="-5974.7" y2="1539.53" gradientTransform="matrix(-1, 0, 0, 1, -4084.67, 0)" gradientUnits="userSpaceOnUse"><stop offset="0" stop-color="#cb236d"/><stop offset="1" stop-color="#4c246d"/></linearGradient><linearGradient id="linear-gradient-17" x1="-5847.38" y1="1529.55" x2="-5654.06" y2="1529.55" gradientTransform="matrix(-1, 0, 0, 1, -4084.67, 0)" gradientUnits="userSpaceOnUse"><stop offset="0" stop-color="#f9b776"/><stop offset="1" stop-color="#f47960"/></linearGradient><linearGradient id="linear-gradient-18" x1="-4513.96" y1="-842.39" x2="-4496.26" y2="-935.3" gradientTransform="matrix(-0.91, -0.42, -0.42, 0.91, -2561.31, 374.2)" xlink:href="#linear-gradient-17"/><linearGradient id="linear-gradient-19" x1="-4466.07" y1="-1012.85" x2="-4567.05" y2="-935.59" gradientTransform="matrix(-0.91, -0.42, -0.42, 0.91, -2561.31, 374.2)" xlink:href="#linear-gradient-17"/><linearGradient id="linear-gradient-20" x1="-4537.15" y1="-1074.02" x2="-4443.11" y2="-952.95" gradientTransform="matrix(-0.91, -0.42, -0.42, 0.91, -2561.31, 374.2)" xlink:href="#linear-gradient-12"/><linearGradient id="linear-gradient-21" x1="-4478.59" y1="-1029.22" x2="-4579.57" y2="-951.96" gradientTransform="matrix(-0.91, -0.42, -0.42, 0.91, -2561.31, 374.2)" xlink:href="#linear-gradient-17"/><linearGradient id="linear-gradient-22" x1="1795.64" y1="1445.16" x2="1867.19" y2="1663.68" gradientUnits="userSpaceOnUse"><stop offset="0" stop-color="#5ab6ff"/><stop offset="1" stop-color="#2f68e3"/></linearGradient><linearGradient id="linear-gradient-23" x1="-5655.88" y1="1292.58" x2="-5787.07" y2="1489.36" xlink:href="#linear-gradient-17"/><linearGradient id="linear-gradient-24" x1="1887" y1="1463.23" x2="1846.4" y2="1093.88" xlink:href="#linear-gradient-22"/><linearGradient id="linear-gradient-25" x1="-647.81" y1="-1509.86" x2="-550.6" y2="-1509.86" gradientTransform="matrix(-0.58, -0.82, -0.82, 0.58, -356.9, 2155.13)" xlink:href="#linear-gradient-12"/><linearGradient id="linear-gradient-26" x1="-550.93" y1="-1672.49" x2="-573.06" y2="-1603.77" gradientTransform="matrix(-0.58, -0.82, -0.82, 0.58, -356.9, 2155.13)" xlink:href="#linear-gradient-16"/><linearGradient id="linear-gradient-27" x1="-638.83" y1="-1555.51" x2="-611.45" y2="-1555.51" gradientTransform="matrix(-0.58, -0.82, -0.82, 0.58, -356.9, 2155.13)" xlink:href="#linear-gradient-17"/><linearGradient id="linear-gradient-28" x1="-5308.91" y1="1258.68" x2="-5518.1" y2="1572.45" gradientTransform="matrix(-1, 0, 0, 1, -4084.67, 0)" xlink:href="#linear-gradient-12"/><linearGradient id="linear-gradient-29" x1="1625.07" y1="1627.6" x2="1971.61" y2="1627.6" xlink:href="#linear-gradient-10"/><linearGradient id="linear-gradient-30" x1="2424.16" y1="-714.85" x2="1252.3" y2="932.71" gradientTransform="matrix(1, 0, 0, 1, 0, 0)" xlink:href="#linear-gradient-4"/><linearGradient id="linear-gradient-31" x1="1098.26" y1="951.35" x2="718.17" y2="1437.63" gradientUnits="userSpaceOnUse"><stop offset="0" stop-color="#53eac9"/><stop offset="1" stop-color="#45aed8"/></linearGradient><linearGradient id="linear-gradient-32" x1="218.43" y1="754.99" x2="-48.68" y2="1096.72" gradientTransform="matrix(0.97, 0.25, -0.25, 0.97, 1185.81, 328)" xlink:href="#linear-gradient-17"/><linearGradient id="linear-gradient-33" x1="274.5" y1="1187.65" x2="150.35" y2="1363.37" xlink:href="#linear-gradient-31"/><linearGradient id="linear-gradient-34" x1="-3143.85" y1="698.85" x2="-3018.03" y2="1014.45" gradientTransform="matrix(-1, 0, 0, 1, -2267.43, 0)" xlink:href="#linear-gradient-12"/><linearGradient id="linear-gradient-35" x1="-2828.31" y1="1962.8" x2="-2767.26" y2="1962.8" gradientTransform="matrix(-1, 0, 0, 1, -2267.43, 0)" xlink:href="#linear-gradient-12"/><linearGradient id="linear-gradient-36" x1="-3086.29" y1="2203.56" x2="-2998.43" y2="1176.7" gradientTransform="matrix(-1, 0, 0, 1, -2267.43, 0)" xlink:href="#linear-gradient-17"/><linearGradient id="linear-gradient-37" x1="-3111.96" y1="1951.65" x2="-3013.17" y2="1951.65" gradientTransform="matrix(-1, 0, 0, 1, -2267.43, 0)" xlink:href="#linear-gradient-12"/><linearGradient id="linear-gradient-38" x1="-2909.56" y1="2218.84" x2="-2821.67" y2="1191.71" gradientTransform="matrix(-1, 0, 0, 1, -2267.43, 0)" xlink:href="#linear-gradient-17"/><linearGradient id="linear-gradient-39" x1="1196.22" y1="227.83" x2="1026.04" y2="645.53" xlink:href="#linear-gradient-22"/><linearGradient id="linear-gradient-40" x1="903.05" y1="1262.69" x2="650.27" y2="1685.45" gradientTransform="matrix(1, 0, 0, 1, 0, 0)" xlink:href="#linear-gradient-12"/><linearGradient id="linear-gradient-41" x1="-3095.92" y1="1191.39" x2="-3079.42" y2="1070.65" gradientTransform="matrix(-1, 0, 0, 1, -2267.43, 0)" xlink:href="#linear-gradient-17"/><linearGradient id="linear-gradient-42" x1="-2928.48" y1="700.7" x2="-2784.48" y2="444.42" gradientTransform="matrix(-0.9, -0.44, -0.44, 0.9, -1487.87, -859.62)" xlink:href="#linear-gradient-17"/><linearGradient id="linear-gradient-43" x1="-2897.51" y1="477.53" x2="-2825.51" y2="658.14" gradientTransform="matrix(-0.9, -0.44, -0.44, 0.9, -1487.87, -859.62)" xlink:href="#linear-gradient-12"/><linearGradient id="linear-gradient-44" x1="-2897.83" y1="717.93" x2="-2753.82" y2="461.65" gradientTransform="matrix(-0.9, -0.44, -0.44, 0.9, -1487.87, -859.62)" xlink:href="#linear-gradient-17"/><linearGradient id="linear-gradient-45" x1="904.7" y1="1129.71" x2="386.46" y2="1863.22" gradientUnits="userSpaceOnUse"><stop offset="0" stop-color="#9cfffb"/><stop offset="1" stop-color="#9bfffa"/></linearGradient><linearGradient id="linear-gradient-46" x1="781.58" y1="1376.3" x2="915.63" y2="1376.3" xlink:href="#linear-gradient-31"/><linearGradient id="linear-gradient-47" x1="714.71" y1="1231.57" x2="1022.14" y2="1231.57" xlink:href="#linear-gradient-45"/><linearGradient id="linear-gradient-48" x1="1005.85" y1="1166.41" x2="1187.62" y2="682.97" gradientTransform="matrix(1, 0, 0, 1, 0, 0)" xlink:href="#linear-gradient-12"/><linearGradient id="linear-gradient-49" x1="1015.68" y1="1098.65" x2="990.64" y2="1208.59" gradientUnits="userSpaceOnUse"><stop offset="0" stop-color="#53d8ff"/><stop offset="1" stop-color="#3840f7"/></linearGradient><linearGradient id="linear-gradient-50" x1="1105.5" y1="891.89" x2="957.25" y2="1296.69" xlink:href="#linear-gradient-49"/><linearGradient id="linear-gradient-51" x1="861.54" y1="1305.43" x2="928.14" y2="1305.43" gradientTransform="matrix(1, 0, 0, 1, 0, 0)" xlink:href="#linear-gradient-17"/><linearGradient id="linear-gradient-52" x1="767.43" y1="1313.22" x2="759.12" y2="1324.99" xlink:href="#linear-gradient-31"/><linearGradient id="linear-gradient-53" x1="809.86" y1="1202.98" x2="773.47" y2="1254.49" xlink:href="#linear-gradient-31"/><linearGradient id="linear-gradient-54" x1="833.32" y1="1108.52" x2="752.15" y2="1223.4" xlink:href="#linear-gradient-31"/><linearGradient id="linear-gradient-55" x1="887.23" y1="1090.06" x2="786.69" y2="1232.36" xlink:href="#linear-gradient-45"/><linearGradient id="linear-gradient-56" x1="1349.51" y1="-703.32" x2="1101.53" y2="-168.8" gradientTransform="matrix(1, 0, 0, 1, 0, 0)" xlink:href="#linear-gradient-4"/></defs><g class="cls-1"><g id="Layer_1" data-name="Layer 1"><path class="cls-2" d="M1918.61,1773.71c-32.85,34.59-63.94,56.89-88.5,74.51-288.68,207.14-630.27,146.76-702.87,132-107.21-21.78-314.43-63.87-464.25-240-226.67-266.55-191.37-686.5-15.55-963.71,32.16-50.71,202-332.14,547.3-377.28,209-27.31,452.53,27.78,628.92,175.56C2193.92,885,2167.56,1511.63,1918.61,1773.71Z" transform="translate(-499.82 -392.46)"/><path class="cls-3" d="M2078.56,414.11c2.23-7.36-8-13-14.74-8.17-68.71,48.91-235.77,197.82-214,477.74,27.28,351.2-64.67,473-174.07,543.87,0,0,145.85-27.43,244.25-150.65C2161.59,974.35,2039,545.06,2078.56,414.11Z" transform="translate(-499.82 -392.46)"/><path class="cls-4" d="M2022,519.72c-10.61,38.24-20.34,76.66-28.42,115.35q-12.48,58-20.81,116.54c-5.37,39-9.88,78.17-12.47,117.44-2.78,39.26-3.61,78.61-4.28,118.12-.93,39.48-1.61,79.26-7,119s-16.25,79.38-35.27,116c-4.75,9.14-9.72,18.23-15.26,27-5.35,8.83-11.16,17.46-17.15,26a428.43,428.43,0,0,1-40.29,48.69c-29.67,30.66-64.79,57.31-103,79.33a9.8,9.8,0,0,1-12.28-2.18c-2.71-3.46-1.76-8.08,2.08-10.44l0,0c9.12-5.59,18.15-11.26,26.85-17.26,4.41-2.94,8.65-6,13-9.09,4.17-3.17,8.48-6.21,12.53-9.49a425.41,425.41,0,0,0,115.74-139.5,345.53,345.53,0,0,0,22-54.35,379.86,379.86,0,0,0,12.52-56.93c5.58-38.58,6.62-78,7.88-117.41s3-79.13,6.48-118.64q2.55-29.62,6.32-59.14c1.2-9.84,2.61-19.66,4-29.48s3.06-19.6,4.72-29.38q10.08-58.67,24.33-116.6c9.72-38.55,20.63-76.85,33.24-114.69a2.4,2.4,0,0,1,2.93-1.36A2.08,2.08,0,0,1,2022,519.72Z" transform="translate(-499.82 -392.46)"/><path class="cls-5" d="M1738.26,1153.19a16.49,16.49,0,0,0,26.64,6.32c47.56-43.74,170.85-179.59,157.19-402.25-11.52-188,.09-291.08,8.61-337.49a10.34,10.34,0,0,0-17.25-9.4C1833.15,485.7,1591.16,755.14,1738.26,1153.19Z" transform="translate(-499.82 -392.46)"/><path class="cls-4" d="M1754.12,1153.18a5.25,5.25,0,0,0,.78.41,4.57,4.57,0,0,0,6-2.51c1.08-2.65,107.85-268.16,103.63-530.32a4.57,4.57,0,1,0-9.14.15c4.19,260.25-101.89,524.09-103,526.72A4.58,4.58,0,0,0,1754.12,1153.18Z" transform="translate(-499.82 -392.46)"/><path class="cls-6" d="M1592,1982.71a85.09,85.09,0,0,1-86.44-83.53l-4.79-279.91,194.92-3.33,4.79,279.91a85.09,85.09,0,0,1-83.53,86.43Z" transform="translate(-499.82 -392.46)"/><path class="cls-6" d="M1227.14,1989a85.09,85.09,0,0,1-86.44-83.53l-4.8-279.91,194.93-3.34,4.79,279.91a85.09,85.09,0,0,1-83.53,86.44Z" transform="translate(-499.82 -392.46)"/><path class="cls-6" d="M1896.68,1616.52l-3.44,25.79c-11.87,88.7-85.43,154.21-174.92,155.74l-606.57,10.38C1022.26,1810,946.5,1747,931.61,1658.78l-4.33-25.66a222.54,222.54,0,0,1,22-139.31l15.27-29.23a112.6,112.6,0,0,0,7.07-87.26l-31.53-95.24a225.5,225.5,0,0,1,29.61-199.9l8.09-11.47a112.12,112.12,0,0,0,16.8-93.17L949,803.77a199.33,199.33,0,0,1,189.36-249.89L1300,551.11c1.4,13.45,12.94,23.18,26.79,22.94l134.44-2.3c13.85-.24,25-10.35,26-23.84l161.58-2.77a199.32,199.32,0,0,1,197.8,243.27l-39.63,175.22a112,112,0,0,0,20,92.55l8.42,11.13a225.51,225.51,0,0,1,36.49,198.77l-28.3,96.32a112.88,112.88,0,0,0,10.1,87l16.26,28.68A222.49,222.49,0,0,1,1896.68,1616.52Z" transform="translate(-499.82 -392.46)"/><path class="cls-7" d="M1821,1505.74l-16.26-28.69a168.43,168.43,0,0,1-15.09-130.47l28.25-96.28a168.42,168.42,0,0,0-27.32-149.07l-8.46-11.17a168.46,168.46,0,0,1-30-138.81L1791.8,776a142,142,0,0,0-28.55-121.39c-27.73-34.1-69.58-53-113.53-52.3l-206.16,3.53-98,1.68-206.15,3.53c-44,.75-85.12,21.12-111.67,56.15a142.62,142.62,0,0,0-24.38,122.57l45.61,173.64a168.26,168.26,0,0,1-25.21,139.68l-8.07,11.43a168.35,168.35,0,0,0-22.2,149.89l31.53,95.26a168.4,168.4,0,0,1-10.62,130.9l-15.26,29.22a165.2,165.2,0,0,0-16.48,104l4.32,25c10.16,60.18,62.77,103.2,123.8,102.16l237.13-4.06,132.34-2.27,237.14-4.06c61-1,112.13-45.84,120.22-106.33l3.46-25.45A164.15,164.15,0,0,0,1821,1505.74Z" transform="translate(-499.82 -392.46)"/><path class="cls-6" d="M1620,936.19A35.82,35.82,0,0,0,1583.51,901l-367.74,6.3a35.82,35.82,0,0,0-35.21,36.43l8.44,492.8a35.82,35.82,0,0,0,36.43,35.2l367.75-6.29a35.82,35.82,0,0,0,35.2-36.44Z" transform="translate(-499.82 -392.46)"/><path class="cls-8" d="M1570.2,992.76a23.39,23.39,0,0,1-23,23.79l-291.2,5a23.4,23.4,0,0,1-23.79-23V998a23.38,23.38,0,0,1,23-23.79l291.2-5a23.39,23.39,0,0,1,23.79,23Z" transform="translate(-499.82 -392.46)"/><path class="cls-9" d="M1571.94,1094.16a23.4,23.4,0,0,1-23,23.79l-291.21,5a23.39,23.39,0,0,1-23.79-23v-.53a23.41,23.41,0,0,1,23-23.8l291.21-5a23.39,23.39,0,0,1,23.79,23Z" transform="translate(-499.82 -392.46)"/><path class="cls-10" d="M1567.39,1223.47a17.93,17.93,0,0,0-18.24-17.62l-106.09,1.81a17.94,17.94,0,0,0-17.62,18.24l1.81,106.09a17.94,17.94,0,0,0,18.24,17.63l106.09-1.82a17.94,17.94,0,0,0,17.63-18.24Z" transform="translate(-499.82 -392.46)"/><path class="cls-11" d="M1182.89,1671.91l4,232.73c.37,21.1,18.36,37.36,39.46,37l25-.43c21.1-.36,40.73-17.27,40.37-38.37l-4-232.72Z" transform="translate(-499.82 -392.46)"/><path class="cls-12" d="M1547.92,1665.66l4,232.73c.36,21.1,18.22,37.36,39.32,37l25-.43c21.1-.36,40.87-17.27,40.51-38.37l-4-232.72Z" transform="translate(-499.82 -392.46)"/><path class="cls-6" d="M1497.52,449.46l-211.26,3.62a95.52,95.52,0,0,0-93.89,97.16l.68,40.14,402.32-6.89-.69-40.14A95.52,95.52,0,0,0,1497.52,449.46Zm-36.33,122.29-134.44,2.3c-13.85.24-25.39-9.49-26.79-22.94a18.29,18.29,0,0,1-.18-2.34c-.25-14.64,11.44-25.93,26.09-26.18L1360,522c-.24-14,11.35-28.28,26-28.53l15.15-.26c14.65-.25,26.77,13.59,27,27.62l32.18-.55c14.65-.25,26.72,10.63,27,25.27a20.53,20.53,0,0,1-.1,2.35C1486.24,561.4,1475,571.51,1461.19,571.75Z" transform="translate(-499.82 -392.46)"/><path class="cls-6" d="M1093.54,1020.63a1.8,1.8,0,0,1-.6-.1,1.93,1.93,0,0,1-1.24-2.44c5.33-16.35-4.92-54.89-25.33-131.68-7.2-27.08-15.36-57.77-24.61-94.12-9.9-38.92-5.39-71.36,13.39-96.44,37.29-49.77,119.22-53.26,120-53.29a1.9,1.9,0,0,1,2,1.87,1.93,1.93,0,0,1-1.86,2c-.8,0-80.93,3.46-117.09,51.75-18,24.09-22.33,55.43-12.73,93.16,9.24,36.33,17.4,67,24.6,94.07,20.6,77.53,31,116.44,25.27,133.88A1.94,1.94,0,0,1,1093.54,1020.63Z" transform="translate(-499.82 -392.46)"/><path class="cls-13" d="M1591.37,1539.51a40.72,40.72,0,0,1,29-8.44l293.51,26.13c5.4.49,11.34,4.47,11.34,9.22v4.81c0,2.64-3.11,5.15-5.36,6.91s-6.15,2.6-9.14,2.31l-268.24-26a26.88,26.88,0,0,0-19.69,5.81c-5.17,4.38-8,10.54-7.42,16.82l7.44,85.9c-8.42,15.24-19,14.86-27.34,10.87-8.46-4.06-13.81-11.79-14-20.23l-2-89.52C1579.18,1554.78,1583.53,1545.83,1591.37,1539.51Z" transform="translate(-499.82 -392.46)"/><path class="cls-14" d="M2036.23,1355.88c-5.2-1.77-29.31-21.25-39.08-5.46s-38.45,110.47-1.94,112.73S2036.23,1355.88,2036.23,1355.88Z" transform="translate(-499.82 -392.46)"/><rect class="cls-15" x="957.4" y="1317.48" width="467.97" height="272.66"/><path class="cls-16" d="M1228.13,1813.52c4.06-8.22,172.1-100.44,226.21-130a75.83,75.83,0,0,1,35.56-9.29l369.87-4.78a27.55,27.55,0,0,0,23.45-13.7l122.9-211.39,33-119.55a33.94,33.94,0,0,1,41.14-23.84l3.43.88a33.92,33.92,0,0,1,24.58,40.7l-25.42,107-132.07,265.78a27.53,27.53,0,0,1-24,15.28l-407.83,9.68a76.26,76.26,0,0,0-31.55,7.64l-207.09,100.55a38.67,38.67,0,0,1-42.27-5.64C1229.16,1835.18,1222.48,1824.94,1228.13,1813.52Z" transform="translate(-499.82 -392.46)"/><path class="cls-17" d="M1401.15,1980.32c0,10.76,8.49,19.68,18.69,19.68h538.89c10.2,0,18.68-8.92,18.68-19.68v-.12a18.64,18.64,0,0,0-18.68-18.88H1419.84a18.65,18.65,0,0,0-18.69,18.88Z" transform="translate(-499.82 -392.46)"/><path class="cls-18" d="M1785.76,1905.25H1616a13.76,13.76,0,0,1-13.74-13.75V1830a13.76,13.76,0,0,1,13.74-13.75h169.76A13.76,13.76,0,0,1,1799.5,1830v61.46A13.76,13.76,0,0,1,1785.76,1905.25Zm-169.76-87a11.82,11.82,0,0,0-11.81,11.81v61.46a11.83,11.83,0,0,0,11.81,11.81h169.76a11.83,11.83,0,0,0,11.81-11.81V1830a11.82,11.82,0,0,0-11.81-11.81Z" transform="translate(-499.82 -392.46)"/><path class="cls-19" d="M1842.91,1565.52l.29,0c37.87-4.52,74.18-76,75.7-79a2.4,2.4,0,1,0-4.29-2.16c-.37.72-36.66,72.22-72,76.43a2.41,2.41,0,0,0,.28,4.8Z" transform="translate(-499.82 -392.46)"/><path class="cls-20" d="M1762.71,1516.63c-5.61-2.62-56.11-4-77.35,0s-72.53,0-72.53,0-20.84-16.83-30.46-6.41c0,0-12,8.81-12,13.62s-4.41,16.64,5.61,19.14,31.26,0,31.26,0l135,9.31Z" transform="translate(-499.82 -392.46)"/><path class="cls-21" d="M1956.7,1371.1s-19.28,55.39-22,73.12a5.91,5.91,0,0,1-5.33,5c-9.47.85-30.67-.39-49.76-23.72a12.27,12.27,0,0,1-1.39-13.35l25.65-50.32Z" transform="translate(-499.82 -392.46)"/><path class="cls-22" d="M1939.46,1281.06s-32.94,29.55-42.88,48.42-19.87,29.53.74,43.67,44.57,11.63,63.62-3c0,0,29.61-22.4,31.59-36.22S1939.46,1281.06,1939.46,1281.06Z" transform="translate(-499.82 -392.46)"/><path class="cls-23" d="M1959.63,1352.8l-1-1.15a3.37,3.37,0,0,1,.43-4.91c6-4.65,18.5-15.82,12-22.72-8.32-8.89-45.13-35.75-47.29-54.16-2.09-17.7,13.55-32.15,27.09-32.1a1.68,1.68,0,0,1,1.71,1.58l.13,2.19a1.67,1.67,0,0,0,2.94,1h0a1.67,1.67,0,0,1,2.92.86c.72,5.54,4.79,15.86,22.58,28.34,25.29,17.74,38.44,37.28,30.16,56.57a1.67,1.67,0,0,0,1.78,2.33c2.61-.3,6.14.61,8.82,6.27,4.67,9.85-6,25-28.87,31a1.66,1.66,0,0,0-1,2.47c2.11,3.34,4.47,10.07-10,11-15,.93-23.75-3.72-27-5.87a1.67,1.67,0,0,1-.39-2.4L1966,1358a1.67,1.67,0,0,0-.64-2.53Z" transform="translate(-499.82 -392.46)"/><path class="cls-24" d="M1957.32,1356s16.91-20.77,24.45-9.32-17.56,23.9-26.46,20.89Z" transform="translate(-499.82 -392.46)"/><path class="cls-25" d="M1946.29,1433.43s-59.26-35.33-91.62-22.08-169.31,193.48-169.31,193.48L1787,1668.3S2018.91,1471.56,1946.29,1433.43Z" transform="translate(-499.82 -392.46)"/><path class="cls-26" d="M1680.78,1551.08a7.86,7.86,0,0,1,6.65-5.85l17.25-2.1a20.38,20.38,0,0,1,21.53,12.91,58.84,58.84,0,0,1,3.86,18.19s49.79,14.5,92.39-3.6a240.18,240.18,0,0,1-7.37,49.54c-24.41-2.52-52.3-10.89-84.18-27l-47.1-33.72A7.86,7.86,0,0,1,1680.78,1551.08Z" transform="translate(-499.82 -392.46)"/><path class="cls-27" d="M1954.48,1437.17s29.28,34.91,8,81.3S1897.3,1624,1823.28,1623.92l7.37-49.55S1957.06,1460.11,1954.48,1437.17Z" transform="translate(-499.82 -392.46)"/><path class="cls-28" d="M1200.16,1736c8.41,14.45,23.13,39.43,35.42,58.64,7.39,11.54,13,17.22,17.13,19.89l-1.21.79a4.7,4.7,0,0,1-6.22-1.1,800,800,0,0,1-51.57-73.12,3.36,3.36,0,0,1,2.55-5.14A28.34,28.34,0,0,1,1200.16,1736Z" transform="translate(-499.82 -392.46)"/><path class="cls-29" d="M1235.58,1794.67c-12.29-19.21-27-44.19-35.42-58.64,25.85,1.83,66.83,36.53,66.83,36.53l8.45,12c-6.09,16.63-16.58,25.79-22.73,30C1248.61,1811.89,1243,1806.21,1235.58,1794.67Z" transform="translate(-499.82 -392.46)"/><path class="cls-30" d="M1296.45,1772.8l-23,14.52a6.21,6.21,0,0,1-7.83-1,24.2,24.2,0,0,1-5.6-9.54,7.37,7.37,0,0,1,1.78-7.29l18.91-19.1Z" transform="translate(-499.82 -392.46)"/><path class="cls-31" d="M1272.92,1753.53c25.07-17.89,216-153.31,242.93-149.94,28.86,3.61,169.51,1.24,169.51,1.24l96.3,60.13s-25.73,48-156.59,19.18l-100.8-5-234,103.1a3.57,3.57,0,0,1-4.49-1.4l-13.86-22.55A3.57,3.57,0,0,1,1272.92,1753.53Z" transform="translate(-499.82 -392.46)"/><path class="cls-6" d="M1709.2,1535.18l5.25-14.72a1.26,1.26,0,0,1,1.43-.81l7.69,1.58a1.28,1.28,0,0,1,.85.64,1.27,1.27,0,0,1,.06,1.06l-6.47,16a1.29,1.29,0,0,1-.69.69,1.24,1.24,0,0,1-1,0l-6.48-2.9A1.25,1.25,0,0,1,1709.2,1535.18Z" transform="translate(-499.82 -392.46)"/><path class="cls-32" d="M1637.05,1563.56a40.65,40.65,0,0,1,29-8.44l293.86,26.13c5.41.48,11.71,4.46,11.71,9.22v4.81c0,2.64-3.48,5.15-5.72,6.91s-6.33,2.59-9.33,2.3l-268.32-26a27.09,27.09,0,0,0-19.74,5.81c-5.17,4.38-8,10.55-7.44,16.83l7.42,85.89c-8.42,15.24-19,14.87-27.34,10.87-8.46-4.05-13.82-11.79-14-20.22l-2.05-89.52C1624.86,1578.83,1629.22,1569.88,1637.05,1563.56Z" transform="translate(-499.82 -392.46)"/><path class="cls-33" d="M1076,1930c-117,0-193.59-22.29-244.41-68.88-102.36-93.81-96-280.12-85.43-588.78,5.67-165.87,12.73-372.3,3.91-616.45l27.06-1c8.85,245.11,1.77,452.06-3.92,618.36-10.29,300.89-16.5,482.5,76.67,567.9,66.27,60.73,185.23,75.6,397.77,49.7l3.28,26.88C1184.29,1925.83,1126.36,1930,1076,1930Z" transform="translate(-499.82 -392.46)"/><path class="cls-34" d="M1096.5,1162.73l-21.28,5.19c-25.93,7.81-47.84,9.81-66.57,7.82-58.49-6.19-85.94-51.24-107.68-79.89-28.7-37.83-60.38-31.3-60.38-31.3L860,1148c43.39,69.15,105.46,72.44,147.18,64.53,26.56-5,44.88-14.59,44.88-14.59C1100.88,1183.74,1096.5,1162.73,1096.5,1162.73Z" transform="translate(-499.82 -392.46)"/><path class="cls-35" d="M1144.65,1203.33a14.2,14.2,0,0,0-5.76-10.9L1105,1167.35s.69-5,10.12-6.08,9.93-11.2,9.93-11.2-13.11,2.3-32.46,6.32c-11.07,2.29-18.8,9.42-23.4,15.11l6.42,15.36c21.53,13.08,44.8,20.57,69.35,24Z" transform="translate(-499.82 -392.46)"/><polygon class="cls-36" points="138.78 1272.8 307.19 1279.31 307.19 1217.75 164.98 1204.73 138.78 1272.8"/><path class="cls-37" d="M811.48,872.47s-42.81,14.27-70.55,75.44c-7.58,16.72-48.75,19.69-53,54-2.2,17.71-15.3,31.9-32.95,34.6-43.93,6.73-111.64,29.55-122.48,105.83-8.26,58.23,21.42,80.31,52.57,88,22.88,5.61,38.08,27.87,33.46,51-4.44,22.16,2.18,47.77,40.56,68,86,45.38,171.91-107.53,171.91-107.53l17.6-267Z" transform="translate(-499.82 -392.46)"/><path class="cls-38" d="M560.8,1948.16l-3.47,28.54A11.79,11.79,0,0,1,547,1987c-9.15,1-23.84,2.12-38.21.6a10.1,10.1,0,0,1-8.48-13.1c3.5-11,9.91-27.56,19.15-37.3h31.67A9.75,9.75,0,0,1,560.8,1948.16Z" transform="translate(-499.82 -392.46)"/><path class="cls-39" d="M808.84,1613.74l5.35,31.44S796.29,1826.49,793.1,1899a56.88,56.88,0,0,0,8.41,32.3l31.13,50.54-79.1-46.67-1.58-9.66,12.95-17.8-17-203.11a62.26,62.26,0,0,1,7.09-34.47l16.36-30.74Z" transform="translate(-499.82 -392.46)"/><path class="cls-40" d="M837.85,1989.18H812.6a15.19,15.19,0,0,1-12.06-5.92c-7.87-10.22-24.17-30.17-32-30.69-10.49-.7-9.15,36.61-9.15,36.61h-5.88l-7.46-46.37a27.44,27.44,0,0,1,14.41-28.68h0s2.39,17.74,15.4,25.59,52.94,36,52.94,36a36,36,0,0,1,10.26.27C847.05,1977.38,845.94,1989.18,837.85,1989.18Z" transform="translate(-499.82 -392.46)"/><path class="cls-41" d="M700.5,1628.67S595.63,1827.58,579,1873s-22.51,83.3-22.74,86.89c-.35,5.6-7.32,11-26.54,11-9.92,0-14.78-4-17.15-7.82a11.22,11.22,0,0,1-.43-10.86c6.07-12.27,25.32-51.5,32.45-69.29,8.51-21.25,26.82-117.52,36.86-151s21.39-69.78,65.12-103.23C646.54,1628.67,676.56,1599.27,700.5,1628.67Z" transform="translate(-499.82 -392.46)"/><path class="cls-42" d="M766.74,1302.74c27-114.62-41.47-179.45-41.47-179.45,27.68-26.57,69.93-43.87,96.75-52.88a46.17,46.17,0,0,1,45.83,9.61c21.54,19.66,51.5,52.8,45.69,80.86-5.23,25.21-52.84,151-52.84,151S816.67,1332.73,766.74,1302.74Z" transform="translate(-499.82 -392.46)"/><path class="cls-43" d="M706.77,1359.49c11-33.17,60-56.75,60-56.75,49.93,30,94,9.15,94,9.15s9.87,37.74,3.06,72.82-49.57,260.47-49.57,260.47c-67.37,13.65-171-13.73-171-13.73C686.12,1555.26,695.76,1392.65,706.77,1359.49Z" transform="translate(-499.82 -392.46)"/><path class="cls-44" d="M798.14,987.16l-22,98.78c-2.11,8.7,5.82,7.28,14.62,5.62,14.41-2.71,33-8.31,39.18-19.52a10.71,10.71,0,0,0,1.13-3.72l9.44-68.5a12.29,12.29,0,0,0-7.2-12.93l-18.23-8.09A12.3,12.3,0,0,0,798.14,987.16Z" transform="translate(-499.82 -392.46)"/><path class="cls-45" d="M855.71,908.41s18.56,21.33,17.93,62.92-20.15,51.38-36.12,46.23-38.13-16.41-51-49.8S831,881.82,855.71,908.41Z" transform="translate(-499.82 -392.46)"/><path class="cls-46" d="M811.17,957.48s6.55-58.1,50.69-37.23l6.79,12.27S898.16,913,878.15,887s-56.2-30.32-84.85-.24-42.21,53-31.85,79.13S789,976.48,789,976.48s-2.39-20.91,5.92-27.4,12.85,8.47,12.85,8.47Z" transform="translate(-499.82 -392.46)"/><path class="cls-47" d="M803.56,960.58s3.54-29.84-13.33-25.52-1.84,28.27,4.49,36.74Z" transform="translate(-499.82 -392.46)"/><path class="cls-48" d="M832,875.65c-10.31,3.38-19.52,9.56-27.9,16.38a119.74,119.74,0,0,0-36.39,52.8,119.77,119.77,0,0,0-4.11,15.66A149,149,0,0,1,760,976.62a35.5,35.5,0,0,1-8.25,14.69c-3.93,4.14-8.76,7.15-13.61,9.77s-9.83,4.89-14.5,7.54a59.51,59.51,0,0,0-28.7,36.72c-1.47,5.17-2.6,10.57-4.54,15.87s-4.94,10.52-9.49,14.21a41.14,41.14,0,0,1-15.21,7.55,154.21,154.21,0,0,1-16.22,3.35,134.23,134.23,0,0,0-31.13,8.67,107.36,107.36,0,0,0-27.54,16.64,78.79,78.79,0,0,0-20,24.92,53.92,53.92,0,0,0-5.64,31c1.47,10.51,6.13,20.82,14,28a34.6,34.6,0,0,0,13.67,7.86,36.23,36.23,0,0,0,15.85.74c10.51-1.65,20.58-8.38,24.54-18.53l.8.3c-3.88,10.57-14.19,17.78-25.07,19.71a38,38,0,0,1-16.61-.44,36.74,36.74,0,0,1-14.63-8c-8.46-7.48-13.36-18.28-15-29.28a56.44,56.44,0,0,1,5.67-32.52,81.38,81.38,0,0,1,20.53-26,110.49,110.49,0,0,1,28.19-17.31,138,138,0,0,1,31.78-9.09,149.88,149.88,0,0,0,15.82-3.38,37.45,37.45,0,0,0,13.88-7,29.45,29.45,0,0,0,8.49-12.71c1.87-5,3-10.27,4.57-15.58a63,63,0,0,1,17-28.54,62.17,62.17,0,0,1,13.5-9.89c4.85-2.7,9.84-4.94,14.61-7.47s9.33-5.35,13-9.14a32.75,32.75,0,0,0,7.72-13.55,151.67,151.67,0,0,0,3.6-15.82,119.8,119.8,0,0,1,4.31-16,116,116,0,0,1,37.75-53.19c8.63-6.74,18-12.78,28.61-16Z" transform="translate(-499.82 -392.46)"/><path class="cls-48" d="M773.91,950.48a156.5,156.5,0,0,1-2.06,21.1c-1.27,7-3.32,14-7.12,20.22a40.6,40.6,0,0,1-6.87,8.49,72.13,72.13,0,0,1-8.49,6.65,167.62,167.62,0,0,0-16.87,12.34c-10.42,8.94-19.19,20.13-21.93,33.52-3.14,13.25-2.29,27.91-8.18,41.76a44.86,44.86,0,0,1-13.75,17.26,70.61,70.61,0,0,1-19.14,10.33c-13.64,4.93-27.77,6.66-41.32,9.75s-26.88,8.17-36.38,18.11c-4.6,4.91-8.67,11-8.75,17.75s3.1,13.33,6.19,19.56l-.75.41c-3.47-6-7.12-12.49-7.38-20a22.94,22.94,0,0,1,2.48-10.68,41.2,41.2,0,0,1,6.09-9c9.84-10.91,23.86-16.58,37.54-20.09s27.81-5.28,40.67-10.15a66.17,66.17,0,0,0,17.78-9.78,40.11,40.11,0,0,0,12.17-15.5c5.46-12.28,4.89-26.73,8.25-40.81a56.24,56.24,0,0,1,8.93-19.9,76.88,76.88,0,0,1,14.91-15.64,169.07,169.07,0,0,1,17.52-12.12c5.88-3.73,11.2-8,14.86-13.81,3.81-5.66,6.1-12.31,7.64-19.08a191.31,191.31,0,0,0,3.12-20.78Z" transform="translate(-499.82 -392.46)"/><path class="cls-49" d="M820.93,1161.87l-41.36-91.33c-17.63,4.52-54.76,53.77-54.76,53.77s35.82,148.11.46,187.57c-31.4,35-110.09,291.44-127.38,348.61a9.73,9.73,0,0,0,8.3,12.49l86.06,8.86a9.73,9.73,0,0,0,10.38-7.16l122.69-459.53A79.51,79.51,0,0,0,820.93,1161.87Z" transform="translate(-499.82 -392.46)"/><path class="cls-50" d="M914.27,1174.55s14.54-50.14-51.39-98.47c0,0-28.45-21.65-31.8-7.76l23.47,112.44-72.87,497.05a9.72,9.72,0,0,0,12,10.83l17.94-4.49a9.73,9.73,0,0,0,7.15-7.41c10.2-48,78-371.08,58.09-392.37C876.82,1284.37,915.89,1184.5,914.27,1174.55Z" transform="translate(-499.82 -392.46)"/><path class="cls-51" d="M724.81,1124.31s-43.1,173.83,48.84,206.88,209.75-51.72,209.75-51.72,20.12-10.06,31.61-7.19,10.06-40.22-11.49-51.72-46,37.36-46,37.36-202,100.66-183.63-72.51C773.91,1185.41,801,1127.18,724.81,1124.31Z" transform="translate(-499.82 -392.46)"/><path class="cls-52" d="M854.28,1377.2l50-174.57a5.1,5.1,0,0,1,4.31-3.67c9-1,35.3-4,65.6-6.58,36.5-3.09,78.88-5.59,104.21-3.46a5.11,5.11,0,0,1,4.18,7.35c-14.4,29.14-73.65,147.67-103.32,186.5a5.12,5.12,0,0,1-4.12,2l-116-1.08A5.12,5.12,0,0,1,854.28,1377.2Z" transform="translate(-499.82 -392.46)"/><path class="cls-53" d="M979.36,1177.24l36.25-6a2.61,2.61,0,0,1,2.9,3.38l-3.59,10.88a2.6,2.6,0,0,1-2.13,1.76l-34.87,4.66a2.6,2.6,0,0,1-2.88-3.17l2.22-9.49A2.6,2.6,0,0,1,979.36,1177.24Z" transform="translate(-499.82 -392.46)"/><path class="cls-54" d="M952.23,1207.93l3-15.56a3.6,3.6,0,0,1,3.17-2.9l73.2-7.42a3.59,3.59,0,0,1,3.86,4.41l-4.65,19.38a3.61,3.61,0,0,1-3.32,2.75l-71.53,3.6A3.59,3.59,0,0,1,952.23,1207.93Z" transform="translate(-499.82 -392.46)"/><path class="cls-55" d="M866.36,1335s-7-28.64-4.16-38.8,8.26-23.22,26.4-20.31,39.54,10.54,39.54,10.54-1.08,13.23-14.87,9l8.55,6.62S920.6,1312.63,909,1307l7.95,8.78s-5,8.7-13.57,3.12S890.66,1338.47,866.36,1335Z" transform="translate(-499.82 -392.46)"/><path class="cls-56" d="M793,1332.79h-.11c-41.86,0-57.87-31.68-58-32-.56-1.18,0-1.1,1.13-1.67s2.59.69,3.15,1.87c.15.3,15,30.88,54,32.67,1.3.06,2.32-1.63,2.26-.32S794.21,1332.79,793,1332.79Z" transform="translate(-499.82 -392.46)"/><path class="cls-57" d="M808.22,1277.87a2.26,2.26,0,0,1-1.09-.27c-46.56-24.27-34.58-93.55-34-96.49a2.37,2.37,0,0,1,4.66.84c-.12.69-11.87,68.8,31.58,91.46a2.36,2.36,0,0,1-1.1,4.46Z" transform="translate(-499.82 -392.46)"/><path class="cls-58" d="M828,1175.73c-8-25.45-48.44-105.19-48.44-105.19l-16.35,10.53,29.94,93.82a9.72,9.72,0,0,0,9.25,6.76,4.27,4.27,0,0,1,4.26,4l5.18,79.94S836,1201.19,828,1175.73Z" transform="translate(-499.82 -392.46)"/><path class="cls-59" d="M873.09,1152.1a14.11,14.11,0,0,0,.41-9.71l-24.9-78.21L833.33,1052l-1.68,12.2,13.83,73.08-4.89,133.18,25.86-71.52a14.12,14.12,0,0,0-.45-10.72l-1.57-3.42a14.14,14.14,0,0,1-.22-11.33Z" transform="translate(-499.82 -392.46)"/><path class="cls-60" d="M856.76,424.52c-32.83,0-62.08,17.22-81,44.05-19-26.83-48.21-44.05-81.05-44.05-57.18,0-103.53,52.14-103.53,116.47,0,57.39,99.24,162.57,163.68,203.92a35.56,35.56,0,0,0,40.85-1.74C851.1,700.69,960.29,597.6,960.29,541,960.29,476.66,913.94,424.52,856.76,424.52Z" transform="translate(-499.82 -392.46)"/><path class="cls-6" d="M782.6,640.81h-.43a11,11,0,0,1-9.6-6.45l-48.2-106-46.6,51a11,11,0,0,1-8.14,3.58H551.16a11,11,0,1,1,0-22H664.77l54.59-59.78A11,11,0,0,1,737.53,504l46,101.27,47.26-85.51a11,11,0,0,1,19.8,1.06l19.2,45.6H972.71a11,11,0,0,1,0,22.05H862.5a11,11,0,0,1-10.15-6.75L839.12,550.3l-46.87,84.81A11,11,0,0,1,782.6,640.81Z" transform="translate(-499.82 -392.46)"/></g></g></svg>